<?xml version="1.0" encoding="utf-8"?>
<!-- Generator: Adobe Illustrator 23.0.1, SVG Export Plug-In . SVG Version: 6.00 Build 0)  -->
<svg version="1.1" xmlns="http://www.w3.org/2000/svg" xmlns:xlink="http://www.w3.org/1999/xlink" x="0px" y="0px"
	 viewBox="0 0 625.17 513.49" style="enable-background:new 0 0 625.17 513.49;" xml:space="preserve">
<g id="VORLAGE" style="display:none;">
	<g id="Logo_skizze.tif" style="display:inline;opacity:0.4;">
		<g>
			<defs>
				<rect id="SVGID_1_" x="-311.44" y="-104.92" width="1324.8" height="707.42"/>
			</defs>
			<clipPath id="SVGID_2_">
				<use xlink:href="#SVGID_1_"  style="overflow:visible;"/>
			</clipPath>
			<g style="clip-path:url(#SVGID_2_);">
				
					<image style="overflow:visible;" width="2560" height="1367" xlink:href="6184FFFD41BBFB99.png"  transform="matrix(0.5175 0 0 0.5175 -311.4424 -104.9151)">
				</image>
			</g>
		</g>
	</g>
	<rect x="-92.78" y="-149.92" style="display:inline;fill:none;" width="828" height="842"/>
</g>
<g id="COLOR_FLÜGEL">
</g>
<g id="COLOR_SENSE">
</g>
<g id="COLOR_FACE">
</g>
<g id="SHADING">
</g>
<g id="OUTLINE">
	<path d="M-118.11,12.42"/>
	<path style="fill:#FFFFFF;" d="M189.55,394.84c-8.01-10.97-15.63-26.09-22.92-48.51c-13.47-41.45,6.5-73.5,13-90.75
		c2.53-6.71,6.21-15.79,10.47-25.58c4.26-9.79,9.1-20.31,13.94-29.92c0,0,4.17-8.33-4.58-12.33S84.55,126,39.21,67
		c0,0-7.72,59.08,69.67,109.66c7.91,5.17,19.98,15.09,28.33,25c9.04,10.71,10,14.67,18.65,27.98c0,0-30.48-28.06-41.98-36.81
		s-32.25-20.75-46-30.33c-11.92-8.3-27.46-32.63-31.39-38.97c-5.84-2.56-13.46-7.53-17.94-16.87c0,0-11.64,39.71,42.66,76.67
		c49.89,33.96,65.4,63.77,71.45,70.74c-0.22-0.23-0.52-0.53-0.87-0.89l0.12,0.13c0,0-42.73-35.03-55.69-46.65
		c-10.44-9.35-37.06-28.04-44.73-33.37c0.44,9.7,4.66,37.16,36.39,61.37c0,0,15.36,14.77,27.67,32
		c6.72,9.43,34.44,27.11,35.31,27.66c0,0-0.34-0.09-0.93-0.25c-0.02,0-0.03-0.01-0.05-0.01c-4.7-1.3-25.33-7.32-33.51-14.73
		c-5.49-4.97-7.5-5.75-17.36-18.75c-9.86-13-27.22-25.8-27.22-25.8v0c-1.09,2.27-2.02,5.55-2.42,10.3
		c-1.45,17.31,26.06,27.72,34.38,37.63c7.83,9.33,7.37,14.74,14.34,28.68c9.1,18.23,39.47,17.27,44.41,16.99l0.7-0.05
		c-22.24,8.16-35.39,0.79-35.41,0.78c-5.47,0.88-16.58,4.6-9.3,20.3c9.22,19.86,39.45,9.75,47.91,6.46l2.8-1.41
		c0,0-2.87,10.53-17.33,12.99c-12.58,2.14-22.59,5.36-27.39,7.06c-1.96,0.68-3.88,3-4.17,4.92c-0.06,3.26,1.87,7.67,8.44,13.64
		c13.74,12.5,47.62-20,47.62-20s-0.02,0.36-0.7,1.36c-1.34,2.47-4.63,8-9.92,13.64c-6.69,7.14-16.41,12.56-23.46,21.07
		c0.87,1.82,2.73,3.59,6.08,4.85c4.99,1.86,15.02,4.62,26.08-8.59c12.2-14.56,13.82-15.45,15-21.25c0,0,0.28,1.24-0.21,3.71
		c-0.46,5.01-1.97,13.99-6.87,19.96c-6.96,8.48-13.3,12.07-11.4,16.95v0c0.18,0.08,0.37,0.15,0.57,0.22
		c7.33,2.41,15.91,0.16,38.83-18.5c2.27-1.85,3.92-4.92-1-11.67L189.55,394.84z"/>
	<path style="fill:#D1D1D1;" d="M531.55,101.16c-26.34-20.16-30.51-7.59-38.34,5.67l-0.02,0.03c-0.06,0.09-0.29,0.43-0.6,0.95
		c-1.36,3.14-1.32,6.69,1.74,8.91l0,0c29.47,20.81,120.29,99.06,71.56,246.02c17.74-29.49,30.99-61.67,37.73-96.91
		c6.75-35.25-5.7-73.83-17.08-96.83C577.4,150.52,557.88,121.33,531.55,101.16z"/>
	<path style="fill:#47250C;" d="M498.88,60.83c-9.5-5.75-22.35,10.74-27.17,17.17c-8.84,11.79-38.66,53.5-50,72.33
		c-2.63,4.38-7.56,13.01-11.03,19.15c4.41,7.12,11.61,18.08,15.37,23.77c13.3-30.58,63.5-94.59,63.5-94.59
		S513.17,69.48,498.88,60.83z"/>
	<path style="fill:#47250C;" d="M217.13,494.08c16.46,7.63,31.32-32.4,34.17-38.81c-4.92-5.85-10.81-10.23-14.69-12.79
		C233.6,445.89,198.26,485.33,217.13,494.08z"/>
	<path style="fill:#2B2B2B;" d="M500.05,158.49c-13.06-3.38-35.38-2.74-43.24-2.39l-1.44,2.85c0,0,27.75-2.37,48.38,4.76
		C503.74,163.68,502.04,160.9,500.05,158.49z"/>
	<path style="fill:#232323;" d="M254.36,374.89l-2.09-3.36c1.84,6.01,4.44,15.61,4.78,28.97c0.05,1.93,0.56,3.93,1.37,5.95
		L254.36,374.89z"/>
	<path style="fill:#232323;" d="M214.19,335.05l-4.67-11.89C209.24,326.8,210.42,330.78,214.19,335.05z"/>
	<path style="fill:#232323;" d="M288.84,435.51l-4.26-1.63C285.94,434.51,287.37,435.05,288.84,435.51z"/>
	<path style="fill:#232323;" d="M426.21,395.5c4.94-5.71,8.3-9.7,13.77-19.42c12.93-22.95,21.23-63.75,11.65-87.75
		c-9.25-23.5-31-81.12-49.17-102.25c-40.92-52.75-89.58-50-89.58-50s-48.66-2.75-89.58,50c-18.17,21.13-39.92,78.75-49.17,102.25
		c-9.58,24-1.28,64.8,11.65,87.75c5.47,9.72,8.83,13.71,13.77,19.42c11.83,13.66,30.54,25.46,43.16,34.16
		c19.87,13.69,43.63,54.63,66.8,60.27c2.21,0.54,4.53,0.54,6.74,0c23.17-5.64,46.93-46.58,66.8-60.27
		C395.67,420.96,414.38,409.16,426.21,395.5z M342.18,462.62c-6.44,6.88-14.17,20.06-28.26,23.01c-0.68,0.14-1.4,0.14-2.08,0
		c-14.09-2.95-21.82-16.13-28.26-23.01c-55.63-59.41-74.98-56.81-88.2-76.91c-6.1-9.28-14-19.21-7.33-55.55
		c6.66-36.33,45-65.33,45-65.33s38.24-30.33,47.5-38.83c11.33-10.42,28-13,32.33-13s21,2.58,32.33,13
		c9.26,8.5,47.5,38.83,47.5,38.83s38.34,29,45,65.33c6.67,36.34-1.23,46.27-7.33,55.55C417.16,405.81,397.81,403.21,342.18,462.62z"
		/>
	<path style="fill:#232323;" d="M275.44,427.46l-14.9-16.82C264.55,417.33,271.12,423.68,275.44,427.46z"/>
	<polygon style="fill:#FFFFFF;" points="356.8,387.08 356.71,387.14 356.8,387.08 	"/>
	<path style="fill:#FFFFFF;" d="M373.55,371.33c0.99-3.26,3.76-10.56,6.32-16.64c0,0,0,0,0-0.01c0.91-2.23-0.08-3.74-1.68-4.9
		c-12.21-3.85-15.36,3.55-16.15,7c0.04,0.71,0.09,1.44,0.17,2.23c1.25,12.21,0.29,17.25-0.47,19.26c-0.01,0.03-0.02,0.06-0.03,0.09
		c-0.01,0.02-0.02,0.04-0.03,0.06c-0.19,0.47-0.32,0.95-0.36,1.35v0.5l-2.94,4.89l0.33,8.67l-4.41,6h-2.09l-0.83,1.58l1.5,0.5
		l-4.92,4.42h-3.58l-1.75,4.17l-4.25,2.75h-5.83v-0.84l-2.92,2.17l-4.33,2.33l-4.59,1.42l-1.91-0.92l-2.17,2.34l-2.83,1.5h-1.84
		l-2.83-1.5l-2.17-2.34l-1.91,0.92l-4.59-1.42l-4.33-2.33l-2.92-2.17v0.84h-5.83l-4.25-2.75l-1.75-4.17h-3.58l-4.92-4.42l1.5-0.5
		l-0.83-1.58h-2.09l-4.41-6l0.33-8.67l-2.94-4.89v-0.5c-0.04-0.4-0.17-0.88-0.36-1.35c-0.01-0.02-0.02-0.04-0.03-0.06
		c-0.01-0.03-0.02-0.06-0.03-0.09c-0.76-2.01-1.72-7.05-0.47-19.26c0.04-0.38,0.06-0.73,0.09-1.08c-0.91-3.6-4.28-10.61-16.5-6.56
		c-0.48,0.16-0.91,0.3-1.33,0.43c-0.35,0.81-0.38,1.75,0.08,2.88c0,0.01,0,0.01,0,0.01c2.56,6.08,5.33,13.38,6.32,16.64
		c0.02,0.06,0.04,0.13,0.06,0.2l2.09,3.36l4.06,31.56c0.57,1.4,1.28,2.8,2.12,4.19l14.9,16.82c2.52,2.21,4.27,3.54,4.27,3.54
		c1.45,1.12,3.1,2.07,4.87,2.88l4.26,1.63c11.03,3.5,24.04,2.82,24.04,2.82s22.17,1.17,33.17-7.33c0,0,22.33-17,22.66-30.5
		C369.05,387,371.71,377.33,373.55,371.33z"/>
	<path style="fill:#FFFFFF;" d="M209.51,323.16l-0.04,7.13c0.32,0.37,5.37,5.5,5.73,5.87c12.51,12.83,24.84,9.23,25.76,8.93
		c1.67-0.54,6.17-2.13,13.74-5.59c9.84-4.5,19.17,7.33,14.84,19c-4.34,11.66-3,17.16-3,17.16l9.52-4.45l1.54-1.03l1.44,1.9
		l5.41,6.83l5.09-3.08l1.08,0.08l5.17,6.34l6.96-4.71l4.24,3.67l1.05-0.21c1.33-1.17,4.83-3.17,4.83-3.17s3.5,2,4.83,3.17l1.05,0.21
		l4.24-3.67l6.96,4.71l5.17-6.34l1.08-0.08l5.09,3.08l5.41-6.83l1.44-1.9l1.54,1.03l9.52,4.45c0,0,1.34-5.5-3-17.16
		c-4.33-11.67,5-23.5,14.84-19c7.57,3.46,12.07,5.05,13.74,5.59c0.92,0.3,13.25,3.9,25.76-8.93c13-13.33,0.5-23.83-4.17-30.66
		c-2.59-3.8-4.35-10.56-4.97-14.77l-0.17,0.28l-0.03-0.3c-0.19-4.28-5.47-8.58-8.5-10.7c-1.46-1.08-2.95-0.58-3.08,1.72
		c0.02,2.72,0.92,6.5,1.17,7.85c0.86,4.59,1.16,8.42-4.75,18.08c-8.5,13.84-29.11,16.36-40.98,12.17
		c-11.88-4.19-11.66-12.19-14.81-13.5c-0.65-0.27-3.55-0.27-3.26,0.5c0.53,1.42,4,4.31,2.57,5.5c-1.44,1.19-3.43-2.61-3.52-2.76
		c-0.9-1.48-1.78-2.51-3.3-2.75c-5.94-0.94-8.33-5.03-9.27-7.76c-0.25-0.72-0.28-1.49-0.11-2.23l0.05-0.21l0.09-0.38
		c0.12,0.11,0.2,0.26,0.2,0.42c0.17,2.67,1.67,6.84,12.67,6.17c11-0.67,16.33-11.5,23.67-13.67c14.84-4.58,22.88-12.51,26.57-17.25
		c-13.74-6.34-37.84-15.33-64.07-15.33c-26.14,0-49.89,8.93-63.45,15.26c3.67,4.73,11.7,12.72,26.62,17.31
		c7.34,2.17,12.67,13,23.67,13.67c11,0.67,12.5-3.5,12.67-6.17c0-0.18,0.08-0.33,0.2-0.43l0.09,0.39l0.03,0.11l0.02,0.11
		c0.17,0.74,0.13,1.5-0.11,2.21c-0.94,2.73-3.33,6.83-9.27,7.77c-1.52,0.24-2.4,1.27-3.3,2.75c-0.09,0.15-2.08,3.95-3.52,2.76
		c-1.43-1.19,2.04-4.08,2.57-5.5c0.29-0.77-2.61-0.77-3.26-0.5c-3.15,1.31-2.93,9.31-14.81,13.5c-11.87,4.19-32.48,1.67-40.98-12.17
		c-5.91-9.66-5.61-13.49-4.75-18.08c0.25-1.35,1.15-5.13,1.17-7.85c-0.13-2.3-1.62-2.8-3.08-1.72c-3.03,2.12-8.31,6.42-8.5,10.7
		l-0.03,0.3l-0.17-0.28c-0.62,4.21-2.38,10.97-4.97,14.77C216.35,309.92,210.05,315.89,209.51,323.16z M323.96,337.75
		c5.09,15.16,8.25,15.77,7.59,21.26c-0.67,5.49-4.84,8.07-8.17,8.07c-8.08,0-6.92-6.83-10.5-6.83s-2.42,6.83-10.5,6.83
		c-3.33,0-7.5-2.58-8.17-8.07c-0.66-5.49,2.5-6.1,7.59-21.26c5.44-16.24,11.08-15.34,11.08-15.34S318.52,321.51,323.96,337.75z"/>
	<path style="fill:#FFFFFF;" d="M265.88,379.5l2.5,5.16l1.5,1.67l5.33,3.58l7.25,0.5c0,0,1.67,2.59,1.92,2.67
		c0.25,0.08,5.17,2.25,5.17,2.25l4.5,1l5,3.08l10.83,2l2.94-1.25l3.06,1.25l10.83-2l5-3.08l4.5-1c0,0,4.92-2.17,5.17-2.25
		c0.25-0.08,1.92-2.67,1.92-2.67l7.25-0.5l5.33-3.58l1.5-1.67l2.5-5.16l-1.31-1.98c0,0-3.81-1.88-4-1.94
		c-0.11-0.04-4.27-2.35-4.27-2.35l-2.13-0.98l-5.41,7.25l-0.42,4.45l-0.46,0.38l-0.35-2.19l-0.17-2.23l-1.6-0.83l-2.34-1.13
		l-2.23-0.68l-1.5,1.94l-2.09,2.37l-0.34,1.63l0.4,4.78l-0.53-0.24l-1.25-4.23l-0.62-0.66l-6.21-3.55l-3.48,2.97l-0.07,11.55
		l-0.45-0.67c0,0-0.79-8.58-0.73-9.83s-5.44-4.06-5.44-4.06s-5.5,2.81-5.44,4.06s-0.73,9.83-0.73,9.83l-0.45,0.67l-0.07-11.55
		l-3.48-2.97l-6.21,3.55l-0.62,0.66l-1.25,4.23l-0.53,0.24l0.4-4.78l-0.34-1.63l-2.09-2.37l-1.5-1.94l-2.23,0.68l-2.34,1.13
		l-1.6,0.83l-0.17,2.23l-0.35,2.19l-0.46-0.38L283,379.5l-5.41-7.25l-2.13,0.98c0,0-4.16,2.31-4.27,2.35c-0.19,0.06-4,1.94-4,1.94
		L265.88,379.5z"/>
	<polygon style="fill:#FFFFFF;" points="268.96,387.08 268.95,387.73 269.01,387.12 	"/>
	<path style="fill:#070707;" d="M197.46,318.12l2.39-5.85C198.93,314.1,198.12,316.05,197.46,318.12z"/>
	<path style="fill:#070707;" d="M355.12,440c16.65-16.61,30.81-26.25,45.76-36.38c22.07-34.01,23.11-83.54,23.05-94.87
		c-5.98-9.62-14.22-15.09-14.22-15.09s-2.33,5.5,7.05,17.29c9.13,11.49,3.74,20.88,0,26.13c-3.76,5.25-10.25,8.52-19.63,13.13
		c-9.08,4.45-21.42,24.45-22.63,37.5c-1.21,13.06-0.7,14.92-2.62,20.87c-1.91,5.92-17.5,24.75-28.25,29.63
		c-11.8,5.35-30.75,5.81-30.75,5.81s-18.95-0.46-30.75-5.81c-10.75-4.88-26.34-23.71-28.25-29.63c-1.92-5.95-1.41-7.81-2.62-20.87
		c-1.21-13.05-13.55-33.05-22.63-37.5c-9.38-4.61-15.87-7.88-19.63-13.13c-3.74-5.25-9.13-14.64,0-26.13
		c9.38-11.79,7.05-17.29,7.05-17.29s-7.89,5.23-13.83,14.46c-0.1,10.02,0.53,61.28,23.34,95.97c14.7,9.96,28.68,19.55,45.07,35.91
		c20.11,20.07,28.53,36.19,40.65,39.92c1.04,0.32,2.15,0.32,3.18,0C326.58,476.19,335.01,460.07,355.12,440z"/>
	<polygon style="fill:#FFFFFF;" points="356.82,388.52 351.2,393.04 344.23,393.2 342.3,395.01 336.67,398.13 332.33,398.79 
		327.83,402.2 316.91,403.29 314.05,404.36 312.88,404.48 312.82,404.5 312.37,404.4 311.69,404.28 308.85,403.29 297.89,402.2 
		293.39,398.79 289.05,398.13 283.42,395.01 281.48,393.2 274.51,393.04 268.94,388.36 268.88,393.07 268.88,393.08 269.49,394.02 
		272.13,398.08 273.91,398.65 274.21,398.75 275.69,400.92 275.55,401.14 274.97,402.02 279.13,405 281.46,404.83 281.46,400.85 
		281.46,399.5 282.76,399.5 282.71,400.01 282.63,401 282.88,406.5 283.3,408 284.55,410.25 287.88,412 291.96,411.5 291.86,407.63 
		291.8,405.36 293.38,406.25 293.34,406.93 293.21,409.25 294.46,411.58 300.75,415.36 305.21,415.5 305,411.12 304.96,410.25 
		305.32,411.09 307.21,415.41 310.8,419 312.88,419.25 314.96,419 318.55,415.41 320.61,410.67 320.68,410.52 320.8,410.25 
		320.55,415.5 325.01,415.36 331.3,411.58 332.55,409.25 332.38,406.25 333.96,405.36 333.8,411.5 337.88,412 341.21,410.25 
		342.46,408 342.88,406.5 343.13,401 343,399.5 344.3,399.5 344.3,404.83 346.63,405 350.79,402.02 350.07,400.92 351.55,398.75 
		353.63,398.08 356.88,393.08 	"/>
	<polygon points="310.65,402.52 312.88,404.27 315.11,402.52 312.88,400.87 	"/>
	<path style="fill:#FFFFFF;" d="M376.62,271.91c1.4-1.8,2.18-3.15,2.46-3.67c-3.32-2.31-11.91-8.75-27.53-23.24
		c-20.84-19.34-38.67-19-38.67-19s-17.83-0.34-38.67,19c-15.62,14.49-24.21,20.93-27.53,23.24c0.28,0.51,1.04,1.83,2.41,3.61
		c13.56-6.33,37.31-15.26,63.45-15.26C338.78,256.58,362.88,265.57,376.62,271.91z"/>
	<path style="opacity:0.4;" d="M376.62,271.91c1.4-1.8,2.18-3.15,2.46-3.67c-3.32-2.31-11.91-8.75-27.53-23.24
		c-20.84-19.34-38.67-19-38.67-19s-17.83-0.34-38.67,19c-15.62,14.49-24.21,20.93-27.53,23.24c0.28,0.51,1.04,1.83,2.41,3.61
		c13.56-6.33,37.31-15.26,63.45-15.26C338.78,256.58,362.88,265.57,376.62,271.91z"/>
	<path style="fill:#F4F4F4;" d="M494.33,116.72L494.33,116.72c-3.06-2.22-3.11-5.77-1.74-8.91c-0.99,1.64-2.93,5.23-4.13,9.7
		c-1.72,6.46-1.87,14.74,4.75,21.65c13.74,14.33,28.73,30.44,38.67,41.17c54.67,59,34,182.44,34,182.44
		c0.01-0.01,0.01-0.02,0.02-0.03C614.62,215.78,523.8,137.53,494.33,116.72z"/>
	<path style="fill:#261307;" d="M407.46,175.19c4.72,6.72,10.16,16.61,15.54,27.46c0.38-2.54,1.45-5.73,3.05-9.4
		c-3.76-5.69-10.96-16.64-15.37-23.77C409.3,171.92,408.15,173.96,407.46,175.19z"/>
	<path style="fill:#261307;" d="M251.3,455.27c0.14-0.31,0.25-0.54,0.33-0.69c1.75-3.13,1-5.63-1.5-8
		c-0.18-0.17-0.28-0.29-0.33-0.37c-2.13-2.05-4.2-3.97-6.21-5.77c-2.11-0.99-4.11-1.21-6.96,2.01c-0.01,0.01-0.02,0.02-0.02,0.03
		C240.49,445.03,246.38,449.42,251.3,455.27z"/>
	<path style="fill:#161616;" d="M500.05,158.49c-1.23-1.49-2.56-2.85-3.67-3.33c0,0-12.75-1.49-24.91-1.49
		c-5.06,0-10.03,0.25-13.93,0.99l-0.72,1.44C464.67,155.74,486.99,155.11,500.05,158.49z"/>
	<path style="fill:#FFFFFF;" d="M378.19,349.78c-1.26-0.91-2.9-1.61-4.31-2.28c-3.47-1.67-12.66-6.2-11.84,9.28
		C362.83,353.33,365.98,345.93,378.19,349.78z"/>
	<path style="opacity:0.4;" d="M378.19,349.78c-1.26-0.91-2.9-1.61-4.31-2.28c-3.47-1.67-12.66-6.2-11.84,9.28
		C362.83,353.33,365.98,345.93,378.19,349.78z"/>
	<path style="fill:#FFFFFF;" d="M263.64,357.93c1.34-16.85-8.21-12.14-11.76-10.43c-2.29,1.1-5.19,2.26-6.07,4.3
		c0.42-0.13,0.85-0.27,1.33-0.43C259.36,347.32,262.73,354.32,263.64,357.93z"/>
	<path style="opacity:0.4;" d="M263.64,357.93c1.34-16.85-8.21-12.14-11.76-10.43c-2.29,1.1-5.19,2.26-6.07,4.3
		c0.42-0.13,0.85-0.27,1.33-0.43C259.36,347.32,262.73,354.32,263.64,357.93z"/>
	<path d="M202.22,308.12c-0.84,1.3-1.64,2.69-2.37,4.15l-2.39,5.85c-0.28,0.88-0.54,1.79-0.76,2.71
		c-10.43,44.35-0.94,62.57,15.34,74c4.63,3.25,9.1,6.27,13.52,9.26C202.76,369.4,202.12,318.14,202.22,308.12z"/>
	<path d="M400.88,403.62c4.19-2.84,8.44-5.71,12.83-8.79c16.28-11.43,25.77-29.65,15.34-74c-1.07-4.53-2.94-8.58-5.12-12.08
		C424,320.08,422.95,369.62,400.88,403.62z"/>
	<polygon style="fill:#FFFFFF;" points="313.55,404.33 312.88,404.48 314.05,404.36 	"/>
	<polygon style="opacity:0.4;" points="313.55,404.33 312.88,404.48 314.05,404.36 	"/>
	<polygon style="fill:#FFFFFF;" points="316.91,403.29 327.83,402.2 332.33,398.79 336.67,398.13 342.3,395.01 344.23,393.2 
		351.2,393.04 356.82,388.52 356.8,387.08 356.71,387.14 350.96,391.33 344.13,391.75 342.3,393.83 336.55,396.58 332.3,397.25 
		327.55,400.83 319.38,402.33 316.88,402.75 314.39,404.05 314.05,404.36 	"/>
	<polygon style="opacity:0.4;" points="316.91,403.29 327.83,402.2 332.33,398.79 336.67,398.13 342.3,395.01 344.23,393.2 
		351.2,393.04 356.82,388.52 356.8,387.08 356.71,387.14 350.96,391.33 344.13,391.75 342.3,393.83 336.55,396.58 332.3,397.25 
		327.55,400.83 319.38,402.33 316.88,402.75 314.39,404.05 314.05,404.36 	"/>
	<polygon style="fill:#FFFFFF;" points="281.48,393.2 283.42,395.01 289.05,398.13 293.39,398.79 297.89,402.2 308.85,403.29 
		311.69,404.28 312.37,404.4 311.64,404.23 311.55,404.23 311.52,404.19 308.88,402.75 306.38,402.33 298.21,400.83 293.46,397.25 
		289.21,396.58 283.46,393.83 281.63,391.75 274.8,391.33 269.01,387.12 268.95,387.73 268.94,388.36 274.51,393.04 	"/>
	<polygon style="opacity:0.4;" points="281.48,393.2 283.42,395.01 289.05,398.13 293.39,398.79 297.89,402.2 308.85,403.29 
		311.69,404.28 312.37,404.4 311.64,404.23 311.55,404.23 311.52,404.19 308.88,402.75 306.38,402.33 298.21,400.83 293.46,397.25 
		289.21,396.58 283.46,393.83 281.63,391.75 274.8,391.33 269.01,387.12 268.95,387.73 268.94,388.36 274.51,393.04 	"/>
	<polygon points="311.64,404.23 311.57,404.22 311.52,404.19 311.55,404.23 	"/>
	<polygon style="opacity:0.4;" points="311.64,404.23 311.57,404.22 311.52,404.19 311.55,404.23 	"/>
	<polygon points="314.39,404.05 314.07,404.22 313.55,404.33 314.05,404.36 	"/>
	<polygon style="opacity:0.4;" points="314.39,404.05 314.07,404.22 313.55,404.33 314.05,404.36 	"/>
	<path style="fill:#FFFFFF;" d="M67.88,162.5c13.75,9.58,34.5,21.58,46,30.33s41.98,36.81,41.98,36.81
		c-0.72-0.82-23.85-27.1-35.98-36.48c-16.17-12.5-20.33-15.1-37.33-26.83c-16.76-11.56-34-33.17-38-40.25c0,0-3.48-0.53-8.06-2.55
		C40.42,129.88,55.96,154.2,67.88,162.5z"/>
	<path style="opacity:0.4;" d="M67.88,162.5c13.75,9.58,34.5,21.58,46,30.33s41.98,36.81,41.98,36.81
		c-0.72-0.82-23.85-27.1-35.98-36.48c-16.17-12.5-20.33-15.1-37.33-26.83c-16.76-11.56-34-33.17-38-40.25c0,0-3.48-0.53-8.06-2.55
		C40.42,129.88,55.96,154.2,67.88,162.5z"/>
	<path style="fill:#FFFFFF;" d="M131.9,253.31l-0.12-0.13c-9.84-9.96-68.06-68.3-100.3-83.52c0,0-0.11,1.31,0,3.63
		c7.67,5.34,34.29,24.02,44.73,33.37C89.17,218.28,131.9,253.31,131.9,253.31z"/>
	<path style="opacity:0.4;" d="M131.9,253.31l-0.12-0.13c-9.84-9.96-68.06-68.3-100.3-83.52c0,0-0.11,1.31,0,3.63
		c7.67,5.34,34.29,24.02,44.73,33.37C89.17,218.28,131.9,253.31,131.9,253.31z"/>
	<path style="fill:#FFFFFF;" d="M129.93,294.07c0.59,0.16,0.93,0.25,0.93,0.25C130.55,294.24,130.25,294.15,129.93,294.07z"/>
	<path style="opacity:0.4;" d="M129.93,294.07c0.59,0.16,0.93,0.25,0.93,0.25C130.55,294.24,130.25,294.15,129.93,294.07z"/>
	<path style="fill:#FFFFFF;" d="M79.02,260.58c9.86,13,11.87,13.78,17.36,18.75c8.17,7.4,28.81,13.42,33.51,14.73
		c-10.01-2.78-24.97-8.61-38.68-25.06c-15.83-19-26.84-32-38.05-36.5c-0.46,0.62-0.92,1.37-1.36,2.28v0
		C51.8,234.78,69.16,247.58,79.02,260.58z"/>
	<path style="opacity:0.4;" d="M79.02,260.58c9.86,13,11.87,13.78,17.36,18.75c8.17,7.4,28.81,13.42,33.51,14.73
		c-10.01-2.78-24.97-8.61-38.68-25.06c-15.83-19-26.84-32-38.05-36.5c-0.46,0.62-0.92,1.37-1.36,2.28v0
		C51.8,234.78,69.16,247.58,79.02,260.58z"/>
	<path style="fill:#FFFFFF;" d="M143.21,328.33c-12.36,3.5-24.37,2.39-32.67,0.49l0.01,0.01c0,0-1.13,0.02-2.75,0.28
		C107.82,329.12,120.97,336.49,143.21,328.33z"/>
	<path style="opacity:0.4;" d="M143.21,328.33c-12.36,3.5-24.37,2.39-32.67,0.49l0.01,0.01c0,0-1.13,0.02-2.75,0.28
		C107.82,329.12,120.97,336.49,143.21,328.33z"/>
	<path style="fill:#FFFFFF;" d="M143.21,328.33l-0.7,0.05C142.95,328.35,143.21,328.33,143.21,328.33z"/>
	<path style="opacity:0.4;" d="M143.21,328.33l-0.7,0.05C142.95,328.35,143.21,328.33,143.21,328.33z"/>
	<path style="fill:#FFFFFF;" d="M104.49,374.51C104.49,374.51,104.49,374.51,104.49,374.51c4.79-1.7,14.8-4.92,27.39-7.06
		c14.46-2.46,17.33-12.99,17.33-12.99c-0.04,0.03-0.23,0.17-0.66,0.53c0.05-0.02,0.08-0.04,0.08-0.04s-0.11,0.09-0.3,0.23
		c-0.99,0.83-2.94,2.55-6.57,6.03c-5.38,5.12-32,5.87-37.5,11.12c-0.15,0.14-0.31,0.3-0.48,0.46l2.14,0.13
		C105.91,372.92,106.46,373.83,104.49,374.51z"/>
	<path style="opacity:0.4;" d="M104.49,374.51C104.49,374.51,104.49,374.51,104.49,374.51c4.79-1.7,14.8-4.92,27.39-7.06
		c14.46-2.46,17.33-12.99,17.33-12.99c-0.04,0.03-0.23,0.17-0.66,0.53c0.05-0.02,0.08-0.04,0.08-0.04s-0.11,0.09-0.3,0.23
		c-0.99,0.83-2.94,2.55-6.57,6.03c-5.38,5.12-32,5.87-37.5,11.12c-0.15,0.14-0.31,0.3-0.48,0.46l2.14,0.13
		C105.91,372.92,106.46,373.83,104.49,374.51z"/>
	<path style="fill:#FFFFFF;" d="M104.49,374.51c-1.99,0.71-3.09,1.16-3.09,1.16c-0.61,1.04-1.04,2.29-1.07,3.77
		C100.61,377.52,102.53,375.2,104.49,374.51z"/>
	<path style="opacity:0.4;" d="M104.49,374.51c-1.99,0.71-3.09,1.16-3.09,1.16c-0.61,1.04-1.04,2.29-1.07,3.77
		C100.61,377.52,102.53,375.2,104.49,374.51z"/>
	<path style="fill:#FFFFFF;" d="M104.49,374.51c1.97-0.68,1.42-1.59,1.42-1.59l-2.14-0.13c-0.76,0.73-1.68,1.67-2.38,2.88
		C101.39,375.67,102.49,375.22,104.49,374.51C104.49,374.51,104.49,374.51,104.49,374.51z"/>
	<path style="opacity:0.4;" d="M104.49,374.51c1.97-0.68,1.42-1.59,1.42-1.59l-2.14-0.13c-0.76,0.73-1.68,1.67-2.38,2.88
		C101.39,375.67,102.49,375.22,104.49,374.51C104.49,374.51,104.49,374.51,104.49,374.51z"/>
	<path style="fill:#FFFFFF;" d="M145.75,388.08c5.29-5.65,8.58-11.17,9.92-13.64c-0.62,0.9-1.77,2.33-3.96,4.51
		c-4.89,5.57-9.96,9.67-14.68,12.69c-3.69,2.94-8.08,6.31-13.33,10.19c-1.63,1.21-2.85,4.33-1.41,7.32
		C129.35,400.64,139.07,395.22,145.75,388.08z"/>
	<path style="opacity:0.4;" d="M145.75,388.08c5.29-5.65,8.58-11.17,9.92-13.64c-0.62,0.9-1.77,2.33-3.96,4.51
		c-4.89,5.57-9.96,9.67-14.68,12.69c-3.69,2.94-8.08,6.31-13.33,10.19c-1.63,1.21-2.85,4.33-1.41,7.32
		C129.35,400.64,139.07,395.22,145.75,388.08z"/>
	<path style="fill:#FFFFFF;" d="M162.38,407.83c4.9-5.97,6.41-14.95,6.87-19.96c-0.75,3.83-3.35,10.63-11.7,20.46
		c-10.3,12.1-9.25,15.27-6.57,16.45v0C149.08,419.9,155.42,416.31,162.38,407.83z"/>
	<path style="opacity:0.4;" d="M162.38,407.83c4.9-5.97,6.41-14.95,6.87-19.96c-0.75,3.83-3.35,10.63-11.7,20.46
		c-10.3,12.1-9.25,15.27-6.57,16.45v0C149.08,419.9,155.42,416.31,162.38,407.83z"/>
	<path d="M312.88,322.41c0,0-5.64-0.9-11.08,15.34c-5.09,15.16-8.25,15.77-7.59,21.26c0.67,5.49,4.84,8.07,8.17,8.07
		c8.08,0,6.92-6.83,10.5-6.83s2.42,6.83,10.5,6.83c3.33,0,7.5-2.58,8.17-8.07c0.66-5.49-2.5-6.1-7.59-21.26
		C318.52,321.51,312.88,322.41,312.88,322.41z"/>
	<path d="M437.71,330.16c-6.66-36.33-45-65.33-45-65.33s-38.24-30.33-47.5-38.83c-11.33-10.42-28-13-32.33-13s-21,2.58-32.33,13
		c-9.26,8.5-47.5,38.83-47.5,38.83s-38.34,29-45,65.33c-6.67,36.34,1.23,46.27,7.33,55.55c13.22,20.1,32.57,17.5,88.2,76.91
		c6.44,6.88,14.17,20.06,28.26,23.01c0.68,0.14,1.4,0.14,2.08,0c14.09-2.95,21.82-16.13,28.26-23.01
		c55.63-59.41,74.98-56.81,88.2-76.91C436.48,376.43,444.38,366.5,437.71,330.16z M224.35,290.73l0.17,0.28l0.03-0.3
		c0.19-4.28,5.47-8.58,8.5-10.7c1.46-1.08,2.95-0.58,3.08,1.72c-0.02,2.72-0.92,6.5-1.17,7.85c-0.86,4.59-1.16,8.42,4.75,18.08
		c8.5,13.84,29.11,16.36,40.98,12.17c11.88-4.19,11.66-12.19,14.81-13.5c0.65-0.27,3.55-0.27,3.26,0.5c-0.53,1.42-4,4.31-2.57,5.5
		c1.44,1.19,3.43-2.61,3.52-2.76c0.9-1.48,1.78-2.51,3.3-2.75c5.94-0.94,8.33-5.04,9.27-7.77c0.25-0.71,0.28-1.48,0.11-2.21
		l-0.02-0.11l-0.03-0.11l-0.09-0.39c-0.12,0.1-0.2,0.25-0.2,0.43c-0.17,2.67-1.67,6.84-12.67,6.17c-11-0.67-16.33-11.5-23.67-13.67
		c-14.91-4.6-22.95-12.58-26.62-17.31c-1.37-1.77-2.14-3.09-2.41-3.61c3.32-2.31,11.91-8.75,27.53-23.24
		c20.84-19.34,38.67-19,38.67-19s17.83-0.34,38.67,19c15.62,14.49,24.21,20.93,27.53,23.24c-0.28,0.52-1.06,1.87-2.46,3.67
		c-3.69,4.74-11.72,12.67-26.57,17.25c-7.34,2.17-12.67,13-23.67,13.67c-11,0.67-12.5-3.5-12.67-6.17c0-0.16-0.08-0.31-0.2-0.42
		l-0.09,0.38l-0.05,0.21c-0.17,0.74-0.14,1.51,0.11,2.23c0.94,2.73,3.33,6.83,9.27,7.76c1.52,0.24,2.4,1.27,3.3,2.75
		c0.09,0.15,2.08,3.95,3.52,2.76c1.43-1.19-2.04-4.08-2.57-5.5c-0.29-0.77,2.61-0.77,3.26-0.5c3.15,1.31,2.93,9.31,14.81,13.5
		c11.87,4.19,32.48,1.67,40.98-12.17c5.91-9.66,5.61-13.49,4.75-18.08c-0.25-1.35-1.15-5.13-1.17-7.85c0.13-2.3,1.62-2.8,3.08-1.72
		c3.03,2.12,8.31,6.42,8.5,10.7l0.03,0.3l0.17-0.28c0.62,4.21,2.38,10.97,4.97,14.77c4.67,6.83,17.17,17.33,4.17,30.66
		c-12.51,12.83-24.84,9.23-25.76,8.93c-1.67-0.54-6.17-2.13-13.74-5.59c-9.84-4.5-19.17,7.33-14.84,19c4.34,11.66,3,17.16,3,17.16
		l-9.52-4.45l-1.54-1.03l-1.44,1.9l-5.41,6.83l-5.09-3.08l-1.08,0.08l-5.17,6.34l-6.96-4.71l-4.24,3.67l-1.05-0.21
		c-1.33-1.17-4.83-3.17-4.83-3.17s-3.5,2-4.83,3.17l-1.05,0.21l-4.24-3.67l-6.96,4.71l-5.17-6.34l-1.08-0.08l-5.09,3.08l-5.41-6.83
		l-1.44-1.9l-1.54,1.03l-9.52,4.45c0,0-1.34-5.5,3-17.16c4.33-11.67-5-23.5-14.84-19c-7.57,3.46-12.07,5.05-13.74,5.59
		c-0.92,0.3-13.25,3.9-25.76-8.93c-0.36-0.37-0.7-0.74-1.02-1.11c-3.77-4.27-4.94-8.25-4.67-11.89c0.54-7.27,6.84-13.24,9.86-17.66
		C221.97,301.7,223.73,294.94,224.35,290.73z M245.81,351.8c0.87-2.04,3.77-3.2,6.07-4.3c3.55-1.71,13.11-6.42,11.76,10.43
		c-0.03,0.36-0.05,0.71-0.09,1.08c-1.25,12.21-0.29,17.25,0.47,19.26c0.01,0.03,0.02,0.06,0.03,0.09c0.01,0.02,0.02,0.04,0.03,0.06
		c0.19,0.47,0.32,0.95,0.36,1.35v0.5l2.94,4.89l-0.33,8.67l4.41,6h2.09l0.83,1.58l-1.5,0.5l4.92,4.42h3.58l1.75,4.17l4.25,2.75h5.83
		v-0.84l2.92,2.17l4.33,2.33l4.59,1.42l1.91-0.92l2.17,2.34l2.83,1.5h1.84l2.83-1.5l2.17-2.34l1.91,0.92l4.59-1.42l4.33-2.33
		l2.92-2.17v0.84h5.83l4.25-2.75l1.75-4.17h3.58l4.92-4.42l-1.5-0.5l0.83-1.58h2.09l4.41-6l-0.33-8.67l2.94-4.89v-0.5
		c0.04-0.4,0.17-0.88,0.36-1.35c0.01-0.02,0.02-0.04,0.03-0.06c0.01-0.03,0.02-0.06,0.03-0.09c0.76-2.01,1.72-7.05,0.47-19.26
		c-0.08-0.79-0.13-1.52-0.17-2.23c-0.82-15.48,8.37-10.95,11.84-9.28c1.41,0.67,3.05,1.37,4.31,2.28c1.6,1.16,2.59,2.66,1.68,4.9
		c0,0.01,0,0.01,0,0.01c-2.56,6.08-5.33,13.38-6.32,16.64c-1.84,6-4.5,15.67-4.84,29.17c-0.33,13.5-22.66,30.5-22.66,30.5
		c-11,8.5-33.17,7.33-33.17,7.33s-13.01,0.68-24.04-2.82c-1.47-0.47-2.9-1-4.26-1.63c-1.76-0.81-3.41-1.76-4.87-2.88
		c0,0-1.75-1.33-4.27-3.54c-4.31-3.78-10.89-10.13-14.9-16.82c-0.83-1.39-1.55-2.79-2.12-4.19c-0.82-2.01-1.33-4.02-1.37-5.95
		c-0.34-13.36-2.94-22.96-4.78-28.97c-0.02-0.06-0.04-0.13-0.06-0.2c-0.99-3.26-3.76-10.56-6.32-16.64c0,0,0,0,0-0.01
		C245.43,353.55,245.47,352.61,245.81,351.8z M294.63,387.75l1.25-4.23l0.62-0.66l6.21-3.55l3.48,2.97l0.07,11.55l0.45-0.67
		c0,0,0.79-8.58,0.73-9.83s5.44-4.06,5.44-4.06s5.5,2.81,5.44,4.06s0.73,9.83,0.73,9.83l0.45,0.67l0.07-11.55l3.48-2.97l6.21,3.55
		l0.62,0.66l1.25,4.23l0.53,0.24l-0.4-4.78l0.34-1.63l2.09-2.37l1.5-1.94l2.23,0.68l2.34,1.13l1.6,0.83l0.17,2.23l0.35,2.19
		l0.46-0.38l0.42-4.45l5.41-7.25l2.13,0.98c0,0,4.16,2.31,4.27,2.35c0.19,0.06,4,1.94,4,1.94l1.31,1.98l-2.5,5.16l-1.5,1.67
		l-5.33,3.58l-7.25,0.5c0,0-1.67,2.59-1.92,2.67c-0.25,0.08-5.17,2.25-5.17,2.25l-4.5,1l-5,3.08l-10.83,2l-3.06-1.25l-2.94,1.25
		l-10.83-2l-5-3.08l-4.5-1c0,0-4.92-2.17-5.17-2.25c-0.25-0.08-1.92-2.67-1.92-2.67l-7.25-0.5l-5.33-3.58l-1.5-1.67l-2.5-5.16
		l1.31-1.98c0,0,3.81-1.88,4-1.94c0.11-0.04,4.27-2.35,4.27-2.35l2.13-0.98l5.41,7.25l0.42,4.45l0.46,0.38l0.35-2.19l0.17-2.23
		l1.6-0.83l2.34-1.13l2.23-0.68l1.5,1.94l2.09,2.37l0.34,1.63l-0.4,4.78L294.63,387.75z M350.79,402.02l-4.16,2.98l-2.33-0.17v-5.33
		H343l0.13,1.5l-0.25,5.5l-0.42,1.5l-1.25,2.25l-3.33,1.75l-4.08-0.5l0.16-6.14l-1.58,0.89l0.17,3l-1.25,2.33l-6.29,3.78l-4.46,0.14
		l0.25-5.25l-0.12,0.27l-0.07,0.15l-2.07,4.74l-3.59,3.59l-2.08,0.25L310.8,419l-3.59-3.59l-1.88-4.32l-0.37-0.84l0.04,0.87
		l0.21,4.38l-4.46-0.14l-6.29-3.78l-1.25-2.33l0.13-2.32l0.04-0.68l-1.58-0.89l0.06,2.27l0.1,3.87l-4.08,0.5l-3.33-1.75L283.3,408
		l-0.42-1.5l-0.25-5.5l0.09-0.99l0.04-0.51h-1.3v1.35v3.98l-2.33,0.17l-4.16-2.98l0.58-0.88l0.14-0.22l-1.48-2.17l-0.3-0.1
		l-1.78-0.57l-2.64-4.06l-0.61-0.94l0-0.01l0.06-4.7l0.01-0.63l0.01-0.65l0.05,0.04l5.79,4.21l6.83,0.42l1.83,2.08l5.75,2.75
		l4.25,0.67l4.75,3.58l8.17,1.5l2.5,0.42l2.64,1.44l0.05,0.03l0.07,0.02l0.73,0.16l0.44,0.1l0.06-0.01l0.68-0.15l0.51-0.11
		l0.32-0.17l2.49-1.3l2.5-0.42l8.17-1.5l4.75-3.58l4.25-0.67l5.75-2.75l1.83-2.08l6.83-0.42l5.76-4.19l0.08-0.06l0,0l0.02,1.43
		l0.06,4.56l-3.25,5l-2.08,0.67l-1.48,2.17L350.79,402.02z M310.65,402.52l2.23-1.65l2.23,1.65l-2.23,1.75L310.65,402.52z
		 M413.71,394.83c-4.38,3.08-8.64,5.96-12.83,8.79c-14.95,10.13-29.12,19.76-45.76,36.38c-20.11,20.07-28.53,36.19-40.65,39.92
		c-1.04,0.32-2.15,0.32-3.18,0c-12.11-3.72-20.54-19.84-40.65-39.92c-16.39-16.36-30.38-25.95-45.07-35.91
		c-4.41-2.99-8.89-6.01-13.52-9.26c-16.28-11.43-25.77-29.65-15.34-74c0.22-0.93,0.47-1.83,0.76-2.71c0.66-2.07,1.47-4.02,2.39-5.85
		c0.73-1.46,1.53-2.84,2.37-4.15c5.94-9.23,13.83-14.46,13.83-14.46s2.33,5.5-7.05,17.29c-9.13,11.49-3.74,20.88,0,26.13
		c3.76,5.25,10.25,8.52,19.63,13.13c9.08,4.45,21.42,24.45,22.63,37.5c1.21,13.06,0.7,14.92,2.62,20.87
		c1.91,5.92,17.5,24.75,28.25,29.63c11.8,5.35,30.75,5.81,30.75,5.81s18.95-0.46,30.75-5.81c10.75-4.88,26.34-23.71,28.25-29.63
		c1.92-5.95,1.41-7.81,2.62-20.87c1.21-13.05,13.55-33.05,22.63-37.5c9.38-4.61,15.87-7.88,19.63-13.13
		c3.74-5.25,9.13-14.64,0-26.13c-9.38-11.79-7.05-17.29-7.05-17.29s8.24,5.47,14.22,15.09c2.17,3.5,4.05,7.54,5.12,12.08
		C439.48,365.18,429.99,383.4,413.71,394.83z"/>
	<path style="fill:#C1272D;" d="M476.96,137.66c-2.26-2.08-3.91,0.67-3.91,0.67l-0.09,0.1c-0.59,0.68-4.04,4.67-6.35,7.1
		c-0.02,0.03-2.06,2.23-2.06,4.3c11.08-1.42,26.08,0.42,26.08,0.42L476.96,137.66z"/>
	<polygon style="fill:#C1272D;" points="493.07,107 493.19,106.86 493.1,106.95 	"/>
	<path d="M603.88,183c-28.53-67.86-67.26-88.54-88.87-110.77c-0.21-0.22,0.37-2.49-0.55-5.32c-1.23-3.79-10-17.66-26.91-14.58
		c-13.53,2.47-23.31,17.87-32.34,31c-13.9,20.22-47.33,79-56.58,81.37c-8.83-9.07-21.02-18.51-35.63-25.79
		c-14.62-7.27-31.64-12.39-50.12-12.83c-42.24,1-76.87,26.45-92.47,46.25c-2.15,2.74-4.51,6.31-6.97,10.43
		c-3.46,3.42-9.08-1.02-11.56-2.43C33.84,84.81,35.44,34.92,36.06,29.99c-9.66,50.98-1.89,76.08,4.07,88.21
		c-8.37-1.06-13.77-11.11-17.07-20.89C19.76,87.52,18.55,78,18.55,78c-3.34,5.83-8.5,21.66-7.84,48.08
		c0.67,26.42,10.84,32.75,10.84,32.75l-4.92-0.5c3.09,36,27.25,63.67,27.25,63.67s-0.07,0.12-0.17,0.34
		c-12.05,23.37,4.27,45.62,18.67,52.66c15,7.33,23.88,26.95,26.38,38.08c2.05,9.16,7.7,10.09,11.45,12.25
		c-8.91-0.25-9.71,14-9.71,14c-1,15.12,11.9,22.86,16.76,24.62c0,0,3.62,1.63-3.63,5.13s-11.5,9.87-2.13,22.63
		c2.61,3.54,7.38,8.12,15.63,8.12c-8.92,19.83,24.58,22.25,24.58,22.25c-0.25,3.25-0.66,10,13.84,10.5s32-18.25,37.91-23
		c5.68-4.56,8.52-0.9,8.74-0.6l-0.07-0.17c3.35,3.01,6.77,5.62,10.25,8.02c5.03,3.46,10.36,7.03,16.13,11.32
		c3.55,3.21,1.34,8.08-0.88,10.3c-2.31,2.32-34.58,42.05-19.42,57.38c15.17,15.33,24.17,3.5,27.17,0s21.17-33.5,22.83-35.33
		c1.37-1.51,3.19-1.53,4.62-0.49c20.55,23.83,29.53,32.16,46.07,36.4c2.59,0.67,5.31,0.68,7.9,0.02
		c17.48-4.47,26.49-13.46,49.58-40.43c19.17-20.67,34.09-30.29,47-39.17c16.67-11.47,31.83-27.67,45.75-70.5
		c13.47-41.45-6.5-73.5-13-90.75c-3.62-9.61-9.6-24.04-16.26-38.51c-0.05-1.66-0.16-10.82,3.01-19.57
		c3.5-9.67,14.83-29.5,18.75-32.17c7.87-2.15,49.59,1.11,56.92,7c61.58,49.5,55.33,134,48.33,215.95l0.01-0.02
		C558.28,386.63,645.87,282.86,603.88,183z M603.63,265.83c-6.75,35.24-19.99,67.42-37.73,96.91c-0.01,0.01-0.01,0.02-0.02,0.03
		c0,0,20.67-123.44-34-182.44c-9.94-10.73-24.93-26.84-38.67-41.17c-6.62-6.91-6.47-15.19-4.75-21.65c1.19-4.47,3.14-8.06,4.13-9.7
		c0.31-0.52,0.54-0.86,0.6-0.95l-0.12,0.14l0.03-0.05l0.09-0.09l0.02-0.03c7.83-13.26,12-25.83,38.34-5.67
		c26.33,20.17,45.85,49.36,55,67.84C597.93,192,610.38,230.58,603.63,265.83z M316.25,489.93c-2.21,0.54-4.53,0.54-6.74,0
		c-23.17-5.64-46.93-46.58-66.8-60.27c-12.62-8.7-31.33-20.5-43.16-34.16c-4.94-5.71-8.3-9.7-13.77-19.42
		c-12.93-22.95-21.23-63.75-11.65-87.75c9.25-23.5,31-81.12,49.17-102.25c40.92-52.75,89.58-50,89.58-50s48.66-2.75,89.58,50
		c18.17,21.13,39.92,78.75,49.17,102.25c9.58,24,1.28,64.8-11.65,87.75c-5.47,9.72-8.83,13.71-13.77,19.42
		c-11.83,13.66-30.54,25.46-43.16,34.16C363.18,443.35,339.42,484.29,316.25,489.93z M236.61,442.48c0.01-0.01,0.02-0.02,0.02-0.03
		c2.85-3.22,4.85-3,6.96-2.01c2.01,1.8,4.08,3.72,6.21,5.77c0.05,0.08,0.15,0.2,0.33,0.37c2.5,2.37,3.25,4.87,1.5,8
		c-0.08,0.14-0.19,0.38-0.33,0.69c-2.85,6.41-17.72,46.45-34.17,38.81C198.26,485.33,233.6,445.89,236.61,442.48z M190.38,406.5
		c-22.92,18.66-31.5,20.91-38.83,18.5c-0.2-0.06-0.39-0.14-0.57-0.22c-2.68-1.18-3.73-4.35,6.57-16.45
		c8.35-9.83,10.95-16.63,11.7-20.46c0.49-2.47,0.21-3.71,0.21-3.71c-1.18,5.8-2.8,6.69-15,21.25
		c-11.06,13.21-21.09,10.45-26.08,8.59c-3.35-1.25-5.21-3.02-6.08-4.85c-1.43-2.99-0.22-6.12,1.41-7.32
		c5.25-3.88,9.64-7.25,13.33-10.19c4.72-3.02,9.79-7.12,14.68-12.69c2.19-2.18,3.34-3.61,3.96-4.51c0.68-1,0.7-1.36,0.7-1.36
		s-33.88,32.5-47.62,20c-6.57-5.97-8.5-10.38-8.44-13.64c0.03-1.48,0.47-2.72,1.07-3.77c0.7-1.21,1.62-2.15,2.38-2.88
		c0.17-0.16,0.33-0.32,0.48-0.46c5.5-5.25,32.12-6,37.5-11.12c3.63-3.48,5.58-5.2,6.57-6.03c0.19-0.14,0.3-0.23,0.3-0.23
		s-0.03,0.02-0.08,0.04c0.43-0.36,0.62-0.5,0.66-0.53l-2.8,1.41c-8.46,3.29-38.69,13.4-47.91-6.46c-7.28-15.7,3.84-19.42,9.3-20.3
		c1.62-0.26,2.75-0.28,2.75-0.28l-0.01-0.01c8.3,1.9,20.31,3.01,32.67-0.49c0,0-0.26,0.02-0.7,0.05
		c-4.94,0.28-35.3,1.24-44.41-16.99c-6.97-13.94-6.51-19.35-14.34-28.68c-8.32-9.91-35.83-20.32-34.38-37.63
		c0.4-4.75,1.33-8.03,2.42-10.3c0.44-0.91,0.9-1.67,1.36-2.28C64.37,237,75.38,250,91.21,269c13.71,16.45,28.66,22.28,38.68,25.06
		c0.02,0,0.03,0.01,0.05,0.01c0.31,0.09,0.62,0.17,0.93,0.25c-0.87-0.55-28.59-18.23-35.31-27.66c-12.31-17.23-27.67-32-27.67-32
		C36.14,210.45,31.93,183,31.49,173.29c-0.11-2.32,0-3.63,0-3.63c32.24,15.23,90.45,73.56,100.3,83.52
		c0.35,0.36,0.65,0.66,0.87,0.89c-6.05-6.97-21.56-36.78-71.45-70.74c-54.3-36.96-42.66-76.67-42.66-76.67
		c4.48,9.34,12.1,14.31,17.94,16.87c4.58,2.01,8.06,2.55,8.06,2.55c4,7.08,21.24,28.69,38,40.25c17,11.73,21.16,14.33,37.33,26.83
		c12.13,9.38,35.26,35.66,35.98,36.48c-8.65-13.31-9.61-17.27-18.65-27.98c-8.35-9.91-20.42-19.83-28.33-25
		C31.49,126.08,39.21,67,39.21,67c45.34,59,151.5,116.75,160.25,120.75s4.58,12.33,4.58,12.33c-4.84,9.61-9.68,20.13-13.94,29.92
		c-4.26,9.79-7.94,18.87-10.47,25.58c-6.5,17.25-26.47,49.3-13,90.75c7.29,22.42,14.91,37.54,22.92,48.51l-0.17-0.01
		C194.3,401.58,192.65,404.65,190.38,406.5z M426.05,193.25c-1.6,3.67-2.67,6.86-3.05,9.4c-5.38-10.85-10.82-20.74-15.54-27.46
		c0.69-1.23,1.84-3.27,3.22-5.71c3.48-6.14,8.4-14.78,11.03-19.15c11.34-18.83,41.16-60.54,50-72.33
		c4.82-6.43,17.67-22.92,27.17-17.17c14.29,8.65-9.33,37.83-9.33,37.83S439.35,162.67,426.05,193.25z M464.55,149.83
		c0-2.07,2.04-4.27,2.06-4.3c2.31-2.43,5.76-6.42,6.35-7.1l0.09-0.1c0,0,1.65-2.75,3.91-0.67l13.67,12.59
		C490.63,150.25,475.63,148.41,464.55,149.83z M455.38,158.95l1.44-2.85l0.72-1.44c3.9-0.74,8.87-0.99,13.93-0.99
		c12.16,0,24.91,1.49,24.91,1.49c1.11,0.48,2.45,1.83,3.67,3.33c1.98,2.41,3.69,5.19,3.71,5.22
		C483.13,156.58,455.38,158.95,455.38,158.95z"/>
	<path d="M36.1,29.74c0.01-0.05,0.02-0.11,0.03-0.16C36.13,29.58,36.12,29.63,36.1,29.74z"/>
	<path style="fill:#C1272D;" d="M613.1,179.12c-23.02-54.75-52.88-80.4-74.68-99.14c-5.1-4.38-9.63-8.27-13.56-12.06
		c-0.14-1.22-0.4-2.61-0.89-4.1c-2.32-7.15-13.12-21.93-31.65-21.93c-2.15,0-4.36,0.2-6.57,0.6c-16.82,3.07-27.62,18.87-37.16,32.81
		l-1.62,2.36c-4.17,6.07-9.77,15.05-16.25,25.45c-8.68,13.95-23.53,37.79-31.82,48.04c-7.55-6.71-18.01-14.5-31.45-21.19
		c-17.63-8.77-35.91-13.44-54.33-13.88h-0.48c-42.69,1.01-81.03,25.87-100.1,50.08c-1.39,1.77-2.87,3.86-4.43,6.25
		c-0.48-0.3-0.91-0.56-1.29-0.77C43.32,78.69,46.39,39.28,44.41,29.99C42.78,22.34,43.38,7.33,44.55,0
		c-20.34,20.33-25.42,64.08-21,76.5c0,0-3.92-5.79-5.22-18.24c-5.66,3.22-11.35,15-14.2,30.53c-2.29,9.58-3.81,22.22-3.42,37.54
		c0.33,12.79,2.71,21.82,5.55,28.09l0.41,4.76c2.56,29.87,18.11,54.13,25.64,64.29c-3.58,9.78-3.74,20.08-0.41,30.11
		c4.3,12.99,14.3,24.64,26.09,30.41c11.44,5.59,18.96,22.15,21.01,31.27c1.05,4.69,2.84,8.13,4.88,10.71
		c-2,3.87-3.11,8.37-3.36,12.75c-0.79,12.12,4.64,21.02,10.98,26.89c-2.84,2.99-4.19,6.13-4.82,8.66
		c-1.77,7.12,0.44,14.76,6.77,23.37c3.37,4.57,7.49,7.9,12.2,9.92c0.26,3.74,1.5,6.78,2.85,9.04c5.32,8.91,16.64,12.72,24.58,14.34
		c0.64,1.48,1.56,2.99,2.86,4.45c4.06,4.53,10.36,6.88,19.27,7.19c0.3,0,0.61,0.01,0.91,0.01c15.7,0,30.9-13.78,39.99-22.02
		c0.77-0.7,1.49-1.35,2.12-1.91c2.61,2.17,5.41,4.29,8.48,6.41l2.83,1.94c3,2.05,6.07,4.15,9.26,6.43c-7.79,9.42-38,48.9-17.7,69.42
		c6.98,7.05,14.22,10.63,21.53,10.63c10.9,0,17.54-7.85,20.05-10.8l0.29-0.35c1.94-2.27,6.11-8.83,14.52-22.23
		c1.29-2.07,2.71-4.33,4.02-6.4c16.56,18.7,27.22,27.85,44.91,32.39c2.11,0.54,4.29,0.82,6.47,0.82c2.16,0,4.3-0.27,6.38-0.8
		c20.38-5.21,30.62-15.48,54.58-43.46c16.96-18.26,30.44-27.49,42.34-35.63l2.86-1.96c16.73-11.51,34.31-28.64,49.59-75.65
		c12.54-38.6-1.26-69.97-9.5-88.72c-1.47-3.33-2.73-6.2-3.65-8.65c-3.66-9.69-8.78-21.97-14.08-33.76c-1.12-2.5-1.54-5.26-1.23-7.98
		c0.32-2.8,0.93-6.17,2.1-9.41c2.31-6.37,8-16.71,12.01-22.92c1.33-2.07,3.64-3.31,6.1-3.31h0.05c10.03,0,21.94,1.2,30.65,2.68
		c7.03,1.2,13.56,4.44,18.73,9.35c50.2,47.7,43.76,125.45,37.1,200.73c-0.65,7.39-2.1,26.63-2.1,26.63s7.56-5.48,19.68-19.31
		c0.98-1.12,23.86-28.19,41.32-68.29C628.86,273.55,631.38,222.6,613.1,179.12z M36.13,29.58c-0.01,0.05-0.02,0.11-0.03,0.16
		C36.12,29.63,36.13,29.58,36.13,29.58z M556.89,388.26l-0.01,0.02c7-81.95,13.25-166.45-48.33-215.95
		c-7.33-5.89-49.05-9.15-56.92-7c-3.92,2.67-15.25,22.5-18.75,32.17c-3.17,8.75-3.06,17.91-3.01,19.57
		c6.66,14.47,12.64,28.9,16.26,38.51c6.5,17.25,26.47,49.3,13,90.75c-13.92,42.83-29.08,59.03-45.75,70.5
		c-12.91,8.88-27.83,18.5-47,39.17c-23.09,26.97-32.1,35.96-49.58,40.43c-2.59,0.66-5.31,0.65-7.9-0.02
		c-16.54-4.24-25.52-12.57-46.07-36.4c-1.43-1.04-3.25-1.02-4.62,0.49c-1.66,1.83-19.83,31.83-22.83,35.33s-12,15.33-27.17,0
		c-15.16-15.33,17.11-55.06,19.42-57.38c2.22-2.22,4.43-7.09,0.88-10.3c-5.77-4.29-11.1-7.86-16.13-11.32
		c-3.48-2.4-6.9-5.01-10.25-8.02l0.07,0.17c-0.22-0.3-3.06-3.96-8.74,0.6c-5.91,4.75-23.41,23.5-37.91,23s-14.09-7.25-13.84-10.5
		c0,0-33.5-2.42-24.58-22.25c-8.25,0-13.02-4.58-15.63-8.12c-9.37-12.76-5.12-19.13,2.13-22.63s3.63-5.13,3.63-5.13
		c-4.86-1.76-17.76-9.5-16.76-24.62c0,0,0.8-14.25,9.71-14c-3.75-2.16-9.4-3.09-11.45-12.25c-2.5-11.13-11.38-30.75-26.38-38.08
		c-14.4-7.04-30.72-29.29-18.67-52.66c0.1-0.22,0.17-0.34,0.17-0.34s-24.16-27.67-27.25-63.67l4.92,0.5c0,0-10.17-6.33-10.84-32.75
		c-0.66-26.42,4.5-42.25,7.84-48.08c0,0,1.21,9.52,4.51,19.31c3.3,9.78,8.7,19.83,17.07,20.89c-5.96-12.13-13.73-37.23-4.07-88.21
		c-0.62,4.93-2.22,54.82,165.82,150.34c2.48,1.41,8.1,5.85,11.56,2.43c2.46-4.12,4.82-7.69,6.97-10.43
		c15.6-19.8,50.23-45.25,92.47-46.25c18.48,0.44,35.5,5.56,50.12,12.83c14.61,7.28,26.8,16.72,35.63,25.79
		c9.25-2.37,42.68-61.15,56.58-81.37c9.03-13.13,18.81-28.53,32.34-31c16.91-3.08,25.68,10.79,26.91,14.58
		c0.92,2.83,0.34,5.1,0.55,5.32c21.61,22.23,60.34,42.91,88.87,110.77C645.87,282.86,558.28,386.63,556.89,388.26z"/>
</g>
</svg>
