<?xml version="1.0" encoding="utf-8"?>
<!-- Generator: Adobe Illustrator 23.0.4, SVG Export Plug-In . SVG Version: 6.00 Build 0)  -->
<svg version="1.1" xmlns="http://www.w3.org/2000/svg" xmlns:xlink="http://www.w3.org/1999/xlink" x="0px" y="0px"
	 viewBox="0 0 729.9 212.3" style="enable-background:new 0 0 729.9 212.3;" xml:space="preserve">
<g id="Ebene_3">
</g>
<g id="Ebene_2">
</g>
<g id="Ebene_4">
	<g>
		<g>
			<path style="fill:#CB0A00;" d="M168.7,104.9h-14.5c-0.6,0-1-0.4-1-1V89.4c0-0.6,0.4-1,1-1h14.5c0.6,0,1,0.4,1,1v14.5
				C169.7,104.4,169.2,104.9,168.7,104.9z"/>
			<path style="fill:#CB0A00;" d="M187.3,104.9h-14.5c-0.6,0-1-0.4-1-1V89.4c0-0.6,0.4-1,1-1h14.5c0.6,0,1,0.4,1,1v14.5
				C188.3,104.4,187.8,104.9,187.3,104.9z"/>
			<path style="fill:#CB0A00;" d="M187.3,123.4h-14.5c-0.6,0-1-0.4-1-1v-14.5c0-0.6,0.4-1,1-1h14.5c0.6,0,1,0.4,1,1v14.5
				C188.3,123,187.8,123.4,187.3,123.4z"/>
			<path style="fill:#CB0A00;" d="M167.4,86h-12c-1.1,0-2-0.9-2-2V72c0-1.1,0.9-2,2-2h12c1.1,0,2,0.9,2,2v12
				C169.4,85.2,168.6,86,167.4,86z"/>
			<path style="fill:#CB0A00;" d="M187.3,86.3h-14.5c-0.6,0-1-0.4-1-1V70.8c0-0.6,0.4-1,1-1h14.5c0.6,0,1,0.4,1,1v14.5
				C188.3,85.9,187.8,86.3,187.3,86.3z"/>
			<path style="fill:#CB0A00;" d="M167.4,141.7h-12c-1.1,0-2-0.9-2-2v-12c0-1.1,0.9-2,2-2h12c1.1,0,2,0.9,2,2v12
				C169.4,140.8,168.6,141.7,167.4,141.7z"/>
			<path style="fill:#CB0A00;" d="M131.6,142h-14.5c-0.6,0-1-0.4-1-1v-14.5c0-0.6,0.4-1,1-1h14.5c0.6,0,1,0.4,1,1V141
				C132.6,141.5,132.1,142,131.6,142z"/>
			<path style="fill:#CB0A00;" d="M130.3,104.6h-12c-1.1,0-2-0.9-2-2v-12c0-1.1,0.9-2,2-2h12c1.1,0,2,0.9,2,2v12
				C132.3,103.7,131.4,104.6,130.3,104.6z"/>
			<path style="fill:#CB0A00;" d="M148.9,160.3h-12c-1.1,0-2-0.9-2-2v-12c0-1.1,0.9-2,2-2h12c1.1,0,2,0.9,2,2v12
				C150.9,159.4,150,160.3,148.9,160.3z"/>
			<path style="fill:#CB0A00;" d="M111.8,123.2h-12c-1.1,0-2-0.9-2-2v-12c0-1.1,0.9-2,2-2h12c1.1,0,2,0.9,2,2v12
				C113.8,122.3,112.9,123.2,111.8,123.2z"/>
			<path style="fill:#CB0A00;" d="M93.2,123.2h-12c-1.1,0-2-0.9-2-2v-12c0-1.1,0.9-2,2-2h12c1.1,0,2,0.9,2,2v12
				C95.2,122.3,94.3,123.2,93.2,123.2z"/>
			<path style="fill:#CB0A00;" d="M70.3,121.7h-3c-2.8,0-5-2.2-5-5v-3c0-2.8,2.2-5,5-5h3c2.8,0,5,2.2,5,5v3
				C75.3,119.4,73.1,121.7,70.3,121.7z"/>
			<path style="fill:#CB0A00;" d="M73.3,141.2h-9c-1.7,0-3-1.3-3-3v-9c0-1.7,1.3-3,3-3h9c1.7,0,3,1.3,3,3v9
				C76.3,139.9,75,141.2,73.3,141.2z"/>
			<path style="fill:#CB0A00;" d="M70.3,158.8h-3c-2.8,0-5-2.2-5-5v-3c0-2.8,2.2-5,5-5h3c2.8,0,5,2.2,5,5v3
				C75.3,156.5,73.1,158.8,70.3,158.8z"/>
			<path style="fill:#CB0A00;" d="M51.8,158.8h-3c-2.8,0-5-2.2-5-5v-3c0-2.8,2.2-5,5-5h3c2.8,0,5,2.2,5,5v3
				C56.8,156.5,54.5,158.8,51.8,158.8z"/>
			<path style="fill:#CB0A00;" d="M91.9,141.2h-9c-1.7,0-3-1.3-3-3v-9c0-1.7,1.3-3,3-3h9c1.7,0,3,1.3,3,3v9
				C94.9,139.9,93.5,141.2,91.9,141.2z"/>
			<path style="fill:#CB0A00;" d="M111.8,141.7h-12c-1.1,0-2-0.9-2-2v-12c0-1.1,0.9-2,2-2h12c1.1,0,2,0.9,2,2v12
				C113.8,140.8,112.9,141.7,111.8,141.7z"/>
			<path style="fill:#CB0A00;" d="M111.8,160.3h-12c-1.1,0-2-0.9-2-2v-12c0-1.1,0.9-2,2-2h12c1.1,0,2,0.9,2,2v12
				C113.8,159.4,112.9,160.3,111.8,160.3z"/>
			<path style="fill:#CB0A00;" d="M167.4,160.3h-12c-1.1,0-2-0.9-2-2v-12c0-1.1,0.9-2,2-2h12c1.1,0,2,0.9,2,2v12
				C169.4,159.4,168.6,160.3,167.4,160.3z"/>
			<path style="fill:#CB0A00;" d="M162.9,177.3h-3c-2.8,0-5-2.2-5-5v-3c0-2.8,2.2-5,5-5h3c2.8,0,5,2.2,5,5v3
				C167.9,175.1,165.7,177.3,162.9,177.3z"/>
			<path style="fill:#CB0A00;" d="M186,141.7h-12c-1.1,0-2-0.9-2-2v-12c0-1.1,0.9-2,2-2h12c1.1,0,2,0.9,2,2v12
				C188,140.8,187.1,141.7,186,141.7z"/>
			<path style="fill:#CB0A00;" d="M111.8,104.6h-12c-1.1,0-2-0.9-2-2v-12c0-1.1,0.9-2,2-2h12c1.1,0,2,0.9,2,2v12
				C113.8,103.7,112.9,104.6,111.8,104.6z"/>
			<path style="fill:#CB0A00;" d="M91.9,104.1h-9c-1.7,0-3-1.3-3-3v-9c0-1.7,1.3-3,3-3h9c1.7,0,3,1.3,3,3v9
				C94.9,102.8,93.5,104.1,91.9,104.1z"/>
			<path style="fill:#CB0A00;" d="M148.9,86h-12c-1.1,0-2-0.9-2-2V72c0-1.1,0.9-2,2-2h12c1.1,0,2,0.9,2,2v12
				C150.9,85.2,150,86,148.9,86z"/>
			<path style="fill:#CB0A00;" d="M130.3,86h-12c-1.1,0-2-0.9-2-2V72c0-1.1,0.9-2,2-2h12c1.1,0,2,0.9,2,2v12
				C132.3,85.2,131.4,86,130.3,86z"/>
			<path style="fill:#CB0A00;" d="M110.3,85.5h-9c-1.7,0-3-1.3-3-3v-9c0-1.7,1.3-3,3-3h9c1.7,0,3,1.3,3,3v9
				C113.3,84.2,111.9,85.5,110.3,85.5z"/>
			<path style="fill:#CB0A00;" d="M223.1,104.6h-12c-1.1,0-2-0.9-2-2v-12c0-1.1,0.9-2,2-2h12c1.1,0,2,0.9,2,2v12
				C225.1,103.7,224.2,104.6,223.1,104.6z"/>
			<path style="fill:#CB0A00;" d="M204.6,141.7h-12c-1.1,0-2-0.9-2-2v-12c0-1.1,0.9-2,2-2h12c1.1,0,2,0.9,2,2v12
				C206.6,140.8,205.7,141.7,204.6,141.7z"/>
			<path style="fill:#CB0A00;" d="M205.8,123.4h-14.5c-0.6,0-1-0.4-1-1v-14.5c0-0.6,0.4-1,1-1h14.5c0.6,0,1,0.4,1,1v14.5
				C206.8,123,206.4,123.4,205.8,123.4z"/>
			<path style="fill:#CB0A00;" d="M205.8,104.9h-14.5c-0.6,0-1-0.4-1-1V89.4c0-0.6,0.4-1,1-1h14.5c0.6,0,1,0.4,1,1v14.5
				C206.8,104.4,206.4,104.9,205.8,104.9z"/>
			<path style="fill:#CB0A00;" d="M223.1,123.2h-12c-1.1,0-2-0.9-2-2v-12c0-1.1,0.9-2,2-2h12c1.1,0,2,0.9,2,2v12
				C225.1,122.3,224.2,123.2,223.1,123.2z"/>
			<path style="fill:#CB0A00;" d="M223.1,141.7h-12c-1.1,0-2-0.9-2-2v-12c0-1.1,0.9-2,2-2h12c1.1,0,2,0.9,2,2v12
				C225.1,140.8,224.2,141.7,223.1,141.7z"/>
			<path style="fill:#CB0A00;" d="M181.5,158.8h-3c-2.8,0-5-2.2-5-5v-3c0-2.8,2.2-5,5-5h3c2.8,0,5,2.2,5,5v3
				C186.5,156.5,184.3,158.8,181.5,158.8z"/>
			<path style="fill:#CB0A00;" d="M107.3,177.3h-3c-2.8,0-5-2.2-5-5v-3c0-2.8,2.2-5,5-5h3c2.8,0,5,2.2,5,5v3
				C112.3,175.1,110,177.3,107.3,177.3z"/>
			<path style="fill:#CB0A00;" d="M130.3,178.8h-12c-1.1,0-2-0.9-2-2v-12c0-1.1,0.9-2,2-2h12c1.1,0,2,0.9,2,2v12
				C132.3,178,131.4,178.8,130.3,178.8z"/>
			<path style="fill:#CB0A00;" d="M148.9,178.8h-12c-1.1,0-2-0.9-2-2v-12c0-1.1,0.9-2,2-2h12c1.1,0,2,0.9,2,2v12
				C150.9,178,150,178.8,148.9,178.8z"/>
			<path style="fill:#CB0A00;" d="M204.6,160.3h-12c-1.1,0-2-0.9-2-2v-12c0-1.1,0.9-2,2-2h12c1.1,0,2,0.9,2,2v12
				C206.6,159.4,205.7,160.3,204.6,160.3z"/>
			<path style="fill:#CB0A00;" d="M200.1,177.3h-3c-2.8,0-5-2.2-5-5v-3c0-2.8,2.2-5,5-5h3c2.8,0,5,2.2,5,5v3
				C205.1,175.1,202.8,177.3,200.1,177.3z"/>
			<path style="fill:#CB0A00;" d="M221.6,178.3h-9c-1.7,0-3-1.3-3-3v-9c0-1.7,1.3-3,3-3h9c1.7,0,3,1.3,3,3v9
				C224.6,177,223.3,178.3,221.6,178.3z"/>
			<path style="fill:#CB0A00;" d="M221.6,159.8h-9c-1.7,0-3-1.3-3-3v-9c0-1.7,1.3-3,3-3h9c1.7,0,3,1.3,3,3v9
				C224.6,158.4,223.3,159.8,221.6,159.8z"/>
			<path style="fill:#CB0A00;" d="M237.2,158.8h-3c-2.8,0-5-2.2-5-5v-3c0-2.8,2.2-5,5-5h3c2.8,0,5,2.2,5,5v3
				C242.2,156.5,239.9,158.8,237.2,158.8z"/>
			<path style="fill:#CB0A00;" d="M255.7,158.8h-3c-2.8,0-5-2.2-5-5v-3c0-2.8,2.2-5,5-5h3c2.8,0,5,2.2,5,5v3
				C260.7,156.5,258.5,158.8,255.7,158.8z"/>
			<path style="fill:#CB0A00;" d="M274.3,158.8h-3c-2.8,0-5-2.2-5-5v-3c0-2.8,2.2-5,5-5h3c2.8,0,5,2.2,5,5v3
				C279.3,156.5,277.1,158.8,274.3,158.8z"/>
			<path style="fill:#CB0A00;" d="M274.3,140.2h-3c-2.8,0-5-2.2-5-5v-3c0-2.8,2.2-5,5-5h3c2.8,0,5,2.2,5,5v3
				C279.3,138,277.1,140.2,274.3,140.2z"/>
			<path style="fill:#CB0A00;" d="M292.9,140.2h-3c-2.8,0-5-2.2-5-5v-3c0-2.8,2.2-5,5-5h3c2.8,0,5,2.2,5,5v3
				C297.9,138,295.6,140.2,292.9,140.2z"/>
			<path style="fill:#CB0A00;" d="M258.7,141.2h-9c-1.7,0-3-1.3-3-3v-9c0-1.7,1.3-3,3-3h9c1.7,0,3,1.3,3,3v9
				C261.7,139.9,260.4,141.2,258.7,141.2z"/>
			<path style="fill:#CB0A00;" d="M260.2,123.2h-12c-1.1,0-2-0.9-2-2v-12c0-1.1,0.9-2,2-2h12c1.1,0,2,0.9,2,2v12
				C262.2,122.3,261.3,123.2,260.2,123.2z"/>
			<path style="fill:#CB0A00;" d="M277.3,122.7h-9c-1.7,0-3-1.3-3-3v-9c0-1.7,1.3-3,3-3h9c1.7,0,3,1.3,3,3v9
				C280.3,121.3,279,122.7,277.3,122.7z"/>
			<path style="fill:#CB0A00;" d="M240.2,141.2h-9c-1.7,0-3-1.3-3-3v-9c0-1.7,1.3-3,3-3h9c1.7,0,3,1.3,3,3v9
				C243.2,139.9,241.8,141.2,240.2,141.2z"/>
			<path style="fill:#CB0A00;" d="M241.7,104.6h-12c-1.1,0-2-0.9-2-2v-12c0-1.1,0.9-2,2-2h12c1.1,0,2,0.9,2,2v12
				C243.7,103.7,242.8,104.6,241.7,104.6z"/>
			<path style="fill:#CB0A00;" d="M258.7,104.1h-9c-1.7,0-3-1.3-3-3v-9c0-1.7,1.3-3,3-3h9c1.7,0,3,1.3,3,3v9
				C261.7,102.8,260.4,104.1,258.7,104.1z"/>
			<path style="fill:#CB0A00;" d="M274.3,103.1h-3c-2.8,0-5-2.2-5-5v-3c0-2.8,2.2-5,5-5h3c2.8,0,5,2.2,5,5v3
				C279.3,100.9,277.1,103.1,274.3,103.1z"/>
			<path style="fill:#CB0A00;" d="M292.9,103.1h-3c-2.8,0-5-2.2-5-5v-3c0-2.8,2.2-5,5-5h3c2.8,0,5,2.2,5,5v3
				C297.9,100.9,295.6,103.1,292.9,103.1z"/>
			<path style="fill:#CB0A00;" d="M186,67.5h-12c-1.1,0-2-0.9-2-2v-12c0-1.1,0.9-2,2-2h12c1.1,0,2,0.9,2,2v12
				C188,66.6,187.1,67.5,186,67.5z"/>
			<path style="fill:#CB0A00;" d="M181.5,47.4h-3c-2.8,0-5-2.2-5-5v-3c0-2.8,2.2-5,5-5h3c2.8,0,5,2.2,5,5v3
				C186.5,45.2,184.3,47.4,181.5,47.4z"/>
			<path style="fill:#CB0A00;" d="M205.8,86.3h-14.5c-0.6,0-1-0.4-1-1V70.8c0-0.6,0.4-1,1-1h14.5c0.6,0,1,0.4,1,1v14.5
				C206.8,85.9,206.4,86.3,205.8,86.3z"/>
			<path style="fill:#CB0A00;" d="M223.1,86h-12c-1.1,0-2-0.9-2-2V72c0-1.1,0.9-2,2-2h12c1.1,0,2,0.9,2,2v12
				C225.1,85.2,224.2,86,223.1,86z"/>
			<path style="fill:#CB0A00;" d="M204.6,67.5h-12c-1.1,0-2-0.9-2-2v-12c0-1.1,0.9-2,2-2h12c1.1,0,2,0.9,2,2v12
				C206.6,66.6,205.7,67.5,204.6,67.5z"/>
			<path style="fill:#CB0A00;" d="M223.1,67.5h-12c-1.1,0-2-0.9-2-2v-12c0-1.1,0.9-2,2-2h12c1.1,0,2,0.9,2,2v12
				C225.1,66.6,224.2,67.5,223.1,67.5z"/>
			<path style="fill:#CB0A00;" d="M240.2,85.5h-9c-1.7,0-3-1.3-3-3v-9c0-1.7,1.3-3,3-3h9c1.7,0,3,1.3,3,3v9
				C243.2,84.2,241.8,85.5,240.2,85.5z"/>
			<path style="fill:#CB0A00;" d="M240.2,67h-9c-1.7,0-3-1.3-3-3v-9c0-1.7,1.3-3,3-3h9c1.7,0,3,1.3,3,3v9
				C243.2,65.6,241.8,67,240.2,67z"/>
			<path style="fill:#CB0A00;" d="M167.4,67.5h-12c-1.1,0-2-0.9-2-2v-12c0-1.1,0.9-2,2-2h12c1.1,0,2,0.9,2,2v12
				C169.4,66.6,168.6,67.5,167.4,67.5z"/>
			<path style="fill:#CB0A00;" d="M147.4,67h-9c-1.7,0-3-1.3-3-3v-9c0-1.7,1.3-3,3-3h9c1.7,0,3,1.3,3,3v9
				C150.4,65.6,149,67,147.4,67z"/>
			<path style="fill:#CB0A00;" d="M128.8,67h-9c-1.7,0-3-1.3-3-3v-9c0-1.7,1.3-3,3-3h9c1.7,0,3,1.3,3,3v9
				C131.8,65.6,130.5,67,128.8,67z"/>
			<path style="fill:#CB0A00;" d="M203.1,48.4h-9c-1.7,0-3-1.3-3-3v-9c0-1.7,1.3-3,3-3h9c1.7,0,3,1.3,3,3v9
				C206.1,47.1,204.7,48.4,203.1,48.4z"/>
			<path style="fill:#CB0A00;" d="M218.6,47.4h-3c-2.8,0-5-2.2-5-5v-3c0-2.8,2.2-5,5-5h3c2.8,0,5,2.2,5,5v3
				C223.6,45.2,221.4,47.4,218.6,47.4z"/>
			<path style="fill:#CB0A00;" d="M107.3,66h-3c-2.8,0-5-2.2-5-5v-3c0-2.8,2.2-5,5-5h3c2.8,0,5,2.2,5,5v3
				C112.3,63.8,110,66,107.3,66z"/>
			<path style="fill:#CB0A00;" d="M241.7,123.2h-12c-1.1,0-2-0.9-2-2v-12c0-1.1,0.9-2,2-2h12c1.1,0,2,0.9,2,2v12
				C243.7,122.3,242.8,123.2,241.7,123.2z"/>
			<path style="fill:#CB0A00;" d="M130.3,160.3h-12c-1.1,0-2-0.9-2-2v-12c0-1.1,0.9-2,2-2h12c1.1,0,2,0.9,2,2v12
				C132.3,159.4,131.4,160.3,130.3,160.3z"/>
			<polygon style="fill:#FFFFFF;" points="169.9,106.7 169.9,123.7 151.4,123.7 151.4,142.2 134.4,142.2 134.4,123.7 115.8,123.7 
				115.8,106.7 134.4,106.7 134.4,88.1 151.4,88.1 151.4,106.7 			"/>
		</g>
		<g>
			<path style="fill:#FFFFFF;" d="M310.2,66.9c1,0.6,2.4,1.1,3.9,1.1c2.2,0,3.5-1.2,3.5-2.8c0-1.6-0.9-2.4-3.2-3.3
				c-2.8-1-4.5-2.4-4.5-4.7c0-2.6,2.2-4.5,5.5-4.5c1.7,0,3,0.4,3.7,0.8l-0.6,1.8c-0.6-0.3-1.7-0.8-3.2-0.8c-2.3,0-3.2,1.4-3.2,2.5
				c0,1.6,1,2.3,3.4,3.2c2.9,1.1,4.3,2.4,4.3,4.9c0,2.6-1.9,4.8-5.9,4.8c-1.6,0-3.4-0.5-4.3-1.1L310.2,66.9z"/>
			<path style="fill:#FFFFFF;" d="M323.9,57.6l1.6,6.1c0.4,1.3,0.7,2.6,0.9,3.8h0.1c0.3-1.2,0.7-2.5,1.1-3.8l2-6.1h1.9l1.9,6
				c0.5,1.4,0.8,2.7,1.1,3.9h0.1c0.2-1.2,0.5-2.5,0.9-3.9l1.7-6h2.2l-3.9,12h-2l-1.9-5.7c-0.4-1.3-0.8-2.5-1.1-3.9h-0.1
				c-0.3,1.4-0.7,2.7-1.1,4l-2,5.7h-2l-3.7-12H323.9z"/>
			<path style="fill:#FFFFFF;" d="M344.7,54.2c0,0.7-0.5,1.3-1.4,1.3c-0.8,0-1.3-0.6-1.3-1.3c0-0.8,0.6-1.4,1.4-1.4
				C344.1,52.9,344.7,53.5,344.7,54.2z M342.2,69.5v-12h2.2v12H342.2z"/>
			<path style="fill:#FFFFFF;" d="M348.3,67.3c0.7,0.4,1.8,0.9,2.9,0.9c1.6,0,2.4-0.8,2.4-1.8c0-1-0.6-1.6-2.3-2.2
				c-2.2-0.8-3.2-2-3.2-3.4c0-1.9,1.6-3.5,4.2-3.5c1.2,0,2.3,0.3,3,0.7l-0.6,1.6c-0.5-0.3-1.4-0.7-2.5-0.7c-1.3,0-2,0.7-2,1.6
				c0,1,0.7,1.4,2.3,2c2.1,0.8,3.2,1.8,3.2,3.6c0,2.1-1.7,3.6-4.6,3.6c-1.3,0-2.6-0.3-3.4-0.8L348.3,67.3z"/>
			<path style="fill:#FFFFFF;" d="M358.7,67.3c0.7,0.4,1.8,0.9,2.9,0.9c1.6,0,2.4-0.8,2.4-1.8c0-1-0.6-1.6-2.3-2.2
				c-2.2-0.8-3.2-2-3.2-3.4c0-1.9,1.6-3.5,4.2-3.5c1.2,0,2.3,0.3,3,0.7l-0.6,1.6c-0.5-0.3-1.4-0.7-2.5-0.7c-1.3,0-2,0.7-2,1.6
				c0,1,0.7,1.4,2.3,2c2.1,0.8,3.2,1.8,3.2,3.6c0,2.1-1.7,3.6-4.6,3.6c-1.3,0-2.6-0.3-3.4-0.8L358.7,67.3z"/>
			<path style="fill:#FFFFFF;" d="M385.1,61.7h-6.6v6h7.3v1.8h-9.5V52.9h9.2v1.8h-7V60h6.6V61.7z"/>
			<path style="fill:#FFFFFF;" d="M389.1,67.3c0.7,0.4,1.8,0.9,2.9,0.9c1.6,0,2.4-0.8,2.4-1.8c0-1-0.6-1.6-2.3-2.2
				c-2.2-0.8-3.2-2-3.2-3.4c0-1.9,1.6-3.5,4.2-3.5c1.2,0,2.3,0.3,3,0.7l-0.6,1.6c-0.5-0.3-1.4-0.7-2.5-0.7c-1.3,0-2,0.7-2,1.6
				c0,1,0.7,1.4,2.3,2c2.1,0.8,3.2,1.8,3.2,3.6c0,2.1-1.7,3.6-4.6,3.6c-1.3,0-2.6-0.3-3.4-0.8L389.1,67.3z"/>
			<path style="fill:#FFFFFF;" d="M399.9,61.5c0-1.5-0.1-2.8-0.1-3.9h2l0.1,2.1h0.1c0.9-1.5,2.3-2.3,4.3-2.3c2.9,0,5.2,2.4,5.2,6.1
				c0,4.3-2.7,6.4-5.5,6.4c-1.6,0-3-0.7-3.7-1.9h-0.1v6.5h-2.2V61.5z M402.1,64.7c0,0.3,0.1,0.6,0.1,0.9c0.4,1.5,1.7,2.5,3.3,2.5
				c2.3,0,3.7-1.9,3.7-4.6c0-2.4-1.3-4.4-3.6-4.4c-1.5,0-2.9,1.1-3.3,2.7c-0.1,0.3-0.2,0.6-0.2,0.9V64.7z"/>
			<path style="fill:#FFFFFF;" d="M426.1,63.5c0,4.4-3.1,6.3-6.1,6.3c-3.3,0-5.8-2.4-5.8-6.2c0-4,2.7-6.3,6-6.3
				C423.7,57.3,426.1,59.8,426.1,63.5z M416.4,63.6c0,2.6,1.5,4.6,3.7,4.6c2.1,0,3.7-2,3.7-4.6c0-2-1-4.6-3.6-4.6
				C417.6,59,416.4,61.3,416.4,63.6z"/>
			<path style="fill:#FFFFFF;" d="M429.6,61.3c0-1.4,0-2.6-0.1-3.7h1.9l0.1,2.3h0.1c0.6-1.6,1.9-2.6,3.4-2.6c0.3,0,0.4,0,0.6,0.1
				v2.1c-0.2,0-0.5-0.1-0.8-0.1c-1.6,0-2.7,1.2-3,2.8c0,0.3-0.1,0.6-0.1,1v6.4h-2.2V61.3z"/>
			<path style="fill:#FFFFFF;" d="M441.9,54.2v3.4h3.2v1.7h-3.2v6.4c0,1.5,0.4,2.3,1.7,2.3c0.6,0,1-0.1,1.3-0.1l0.1,1.6
				c-0.4,0.2-1.1,0.3-2,0.3c-1,0-1.9-0.3-2.4-0.9c-0.6-0.6-0.9-1.7-0.9-3.1v-6.5h-1.9v-1.7h1.9v-2.9L441.9,54.2z"/>
			<path style="fill:#FFFFFF;" d="M448.1,67.3c0.7,0.4,1.8,0.9,2.9,0.9c1.6,0,2.4-0.8,2.4-1.8c0-1-0.6-1.6-2.3-2.2
				c-2.2-0.8-3.2-2-3.2-3.4c0-1.9,1.6-3.5,4.2-3.5c1.2,0,2.3,0.3,3,0.7l-0.6,1.6c-0.5-0.3-1.4-0.7-2.5-0.7c-1.3,0-2,0.7-2,1.6
				c0,1,0.7,1.4,2.3,2c2.1,0.8,3.2,1.8,3.2,3.6c0,2.1-1.7,3.6-4.6,3.6c-1.3,0-2.6-0.3-3.4-0.8L448.1,67.3z"/>
			<path style="fill:#FFFFFF;" d="M465.6,52.9h9.1v1.8h-6.9v5.5h6.4V62h-6.4v7.5h-2.2V52.9z"/>
			<path style="fill:#FFFFFF;" d="M479.4,64c0,2.9,2,4.2,4.2,4.2c1.6,0,2.5-0.3,3.4-0.6l0.4,1.6c-0.8,0.3-2.1,0.7-4.1,0.7
				c-3.8,0-6-2.4-6-6s2.2-6.4,5.7-6.4c4,0,5,3.4,5,5.6c0,0.4,0,0.8-0.1,1H479.4z M485.9,62.4c0-1.4-0.6-3.5-3.1-3.5
				c-2.2,0-3.2,2-3.4,3.5H485.9z"/>
			<path style="fill:#FFFFFF;" d="M502.2,52v14.5c0,1.1,0,2.3,0.1,3.1h-2l-0.1-2.1h0c-0.7,1.3-2.2,2.3-4.2,2.3
				c-2.9,0-5.2-2.4-5.2-6.1c0-4,2.5-6.4,5.5-6.4c1.9,0,3.1,0.9,3.7,1.8h0V52H502.2z M499.9,62.5c0-0.3,0-0.6-0.1-0.9
				c-0.3-1.4-1.5-2.5-3.2-2.5c-2.3,0-3.6,2-3.6,4.6c0,2.4,1.2,4.4,3.6,4.4c1.5,0,2.8-1,3.2-2.6c0.1-0.3,0.1-0.6,0.1-0.9V62.5z"/>
			<path style="fill:#FFFFFF;" d="M507.7,64c0,2.9,2,4.2,4.2,4.2c1.6,0,2.5-0.3,3.4-0.6l0.4,1.6c-0.8,0.3-2.1,0.7-4.1,0.7
				c-3.8,0-6-2.4-6-6s2.2-6.4,5.7-6.4c4,0,5,3.4,5,5.6c0,0.4,0,0.8-0.1,1H507.7z M514.2,62.4c0-1.4-0.6-3.5-3.1-3.5
				c-2.2,0-3.2,2-3.4,3.5H514.2z"/>
			<path style="fill:#FFFFFF;" d="M519.8,61.3c0-1.4,0-2.6-0.1-3.7h1.9l0.1,2.3h0.1c0.6-1.6,1.9-2.6,3.4-2.6c0.3,0,0.4,0,0.6,0.1
				v2.1c-0.2,0-0.5-0.1-0.8-0.1c-1.6,0-2.7,1.2-3,2.8c0,0.3-0.1,0.6-0.1,1v6.4h-2.2V61.3z"/>
			<path style="fill:#FFFFFF;" d="M535.5,69.5l-0.2-1.5h-0.1c-0.7,0.9-2,1.8-3.7,1.8c-2.5,0-3.7-1.7-3.7-3.4c0-2.9,2.6-4.5,7.3-4.4
				v-0.2c0-1-0.3-2.8-2.8-2.8c-1.1,0-2.3,0.3-3.2,0.9l-0.5-1.4c1-0.6,2.5-1.1,4-1.1c3.7,0,4.6,2.5,4.6,4.9v4.5c0,1,0,2.1,0.2,2.9
				H535.5z M535.1,63.4c-2.4,0-5.2,0.4-5.2,2.7c0,1.4,1,2.1,2.1,2.1c1.6,0,2.6-1,2.9-2c0.1-0.2,0.1-0.5,0.1-0.7V63.4z"/>
			<path style="fill:#FFFFFF;" d="M544,54.2v3.4h3.2v1.7H544v6.4c0,1.5,0.4,2.3,1.7,2.3c0.6,0,1-0.1,1.3-0.1l0.1,1.6
				c-0.4,0.2-1.1,0.3-2,0.3c-1,0-1.9-0.3-2.4-0.9c-0.6-0.6-0.9-1.7-0.9-3.1v-6.5h-1.9v-1.7h1.9v-2.9L544,54.2z"/>
			<path style="fill:#FFFFFF;" d="M552.6,54.2c0,0.7-0.5,1.3-1.4,1.3c-0.8,0-1.3-0.6-1.3-1.3c0-0.8,0.6-1.4,1.4-1.4
				C552.1,52.9,552.6,53.5,552.6,54.2z M550.2,69.5v-12h2.2v12H550.2z"/>
			<path style="fill:#FFFFFF;" d="M567.7,63.5c0,4.4-3.1,6.3-6.1,6.3c-3.3,0-5.8-2.4-5.8-6.2c0-4,2.7-6.3,6-6.3
				C565.4,57.3,567.7,59.8,567.7,63.5z M558.1,63.6c0,2.6,1.5,4.6,3.7,4.6c2.1,0,3.7-2,3.7-4.6c0-2-1-4.6-3.6-4.6
				C559.2,59,558.1,61.3,558.1,63.6z"/>
			<path style="fill:#FFFFFF;" d="M571.2,60.8c0-1.2,0-2.2-0.1-3.2h2l0.1,2h0.1c0.6-1.1,2-2.2,4-2.2c1.7,0,4.3,1,4.3,5.1v7.1h-2.2
				v-6.9c0-1.9-0.7-3.5-2.8-3.5c-1.5,0-2.6,1-3,2.2c-0.1,0.3-0.2,0.6-0.2,1v7.2h-2.2V60.8z"/>
			<path style="fill:#FFFFFF;" d="M310.2,96.6c1,0.6,2.4,1.1,3.9,1.1c2.2,0,3.5-1.2,3.5-2.8c0-1.6-0.9-2.4-3.2-3.3
				c-2.8-1-4.5-2.4-4.5-4.7c0-2.6,2.2-4.5,5.5-4.5c1.7,0,3,0.4,3.7,0.8l-0.6,1.8c-0.6-0.3-1.7-0.8-3.2-0.8c-2.3,0-3.2,1.4-3.2,2.5
				c0,1.6,1,2.3,3.4,3.2c2.9,1.1,4.3,2.4,4.3,4.9c0,2.6-1.9,4.8-5.9,4.8c-1.6,0-3.4-0.5-4.3-1.1L310.2,96.6z"/>
			<path style="fill:#FFFFFF;" d="M332.2,98.7c-0.6,0.3-1.9,0.7-3.5,0.7c-3.7,0-6.1-2.4-6.1-6.1c0-3.7,2.6-6.3,6.5-6.3
				c1.3,0,2.5,0.3,3.1,0.6l-0.5,1.7c-0.5-0.3-1.4-0.6-2.6-0.6c-2.8,0-4.3,2-4.3,4.5c0,2.8,1.8,4.5,4.2,4.5c1.3,0,2.1-0.3,2.7-0.6
				L332.2,98.7z"/>
			<path style="fill:#FFFFFF;" d="M335.3,81.6h2.2v7.5h0.1c0.4-0.6,0.9-1.2,1.6-1.5c0.7-0.4,1.4-0.6,2.3-0.6c1.6,0,4.3,1,4.3,5.1
				v7.1h-2.2v-6.9c0-1.9-0.7-3.6-2.8-3.6c-1.4,0-2.6,1-3,2.2c-0.1,0.3-0.2,0.6-0.2,1v7.2h-2.2V81.6z"/>
			<path style="fill:#FFFFFF;" d="M350.5,87.2l1.6,6.1c0.4,1.3,0.7,2.6,0.9,3.8h0.1c0.3-1.2,0.7-2.5,1.1-3.8l2-6.1h1.9l1.9,6
				c0.5,1.4,0.8,2.7,1.1,3.9h0.1c0.2-1.2,0.5-2.5,0.9-3.9l1.7-6h2.2l-3.9,12h-2l-1.9-5.7c-0.4-1.3-0.8-2.5-1.1-3.9h-0.1
				c-0.3,1.4-0.7,2.7-1.1,4l-2,5.7h-2l-3.7-12H350.5z"/>
			<path style="fill:#FFFFFF;" d="M369.8,93.6c0.1,2.9,2,4.2,4.2,4.2c1.6,0,2.5-0.3,3.4-0.6l0.4,1.6c-0.8,0.3-2.1,0.7-4.1,0.7
				c-3.7,0-6-2.4-6-6s2.2-6.4,5.7-6.4c4,0,5,3.4,5,5.6c0,0.4-0.1,0.8-0.1,1H369.8z M376.3,92c0-1.4-0.6-3.5-3.1-3.5
				c-2.2,0-3.2,2-3.4,3.5H376.3z"/>
			<path style="fill:#FFFFFF;" d="M384.3,83.9c0,0.7-0.5,1.3-1.4,1.3c-0.8,0-1.3-0.6-1.3-1.3c0-0.8,0.6-1.4,1.4-1.4
				C383.8,82.5,384.3,83.1,384.3,83.9z M381.8,99.2v-12h2.2v12H381.8z"/>
			<path style="fill:#FFFFFF;" d="M386.9,97.9l5.5-7c0.5-0.6,1-1.2,1.6-1.9v0h-6.6v-1.8h9.3l0,1.4l-5.4,6.9c-0.5,0.7-1,1.3-1.6,1.9
				v0h7.1v1.7h-9.9V97.9z"/>
			<path style="fill:#FFFFFF;" d="M400.9,93.6c0,2.9,2,4.2,4.2,4.2c1.6,0,2.5-0.3,3.4-0.6l0.4,1.6c-0.8,0.3-2.1,0.7-4.1,0.7
				c-3.8,0-6-2.4-6-6s2.2-6.4,5.7-6.4c4,0,5,3.4,5,5.6c0,0.4,0,0.8-0.1,1H400.9z M407.4,92c0-1.4-0.6-3.5-3.1-3.5
				c-2.2,0-3.2,2-3.4,3.5H407.4z"/>
			<path style="fill:#FFFFFF;" d="M413,91c0-1.4,0-2.6-0.1-3.7h1.9l0.1,2.3h0.1c0.6-1.6,1.9-2.6,3.4-2.6c0.3,0,0.4,0,0.6,0.1v2.1
				c-0.2,0-0.5-0.1-0.8-0.1c-1.6,0-2.7,1.2-3,2.8c0,0.3-0.1,0.6-0.1,1v6.4H413V91z"/>
			<path style="fill:#FFFFFF;" d="M424.3,83.9c0,0.7-0.5,1.3-1.4,1.3c-0.8,0-1.3-0.6-1.3-1.3c0-0.8,0.6-1.4,1.4-1.4
				C423.8,82.5,424.3,83.1,424.3,83.9z M421.9,99.2v-12h2.2v12H421.9z"/>
			<path style="fill:#FFFFFF;" d="M428,97c0.7,0.4,1.8,0.9,2.9,0.9c1.6,0,2.4-0.8,2.4-1.8c0-1-0.6-1.6-2.3-2.2
				c-2.2-0.8-3.2-2-3.2-3.4c0-1.9,1.6-3.5,4.2-3.5c1.2,0,2.3,0.3,3,0.7l-0.6,1.6c-0.5-0.3-1.4-0.7-2.5-0.7c-1.3,0-2,0.7-2,1.6
				c0,1,0.7,1.4,2.3,2c2.1,0.8,3.2,1.8,3.2,3.6c0,2.1-1.7,3.6-4.6,3.6c-1.3,0-2.6-0.3-3.4-0.8L428,97z"/>
			<path style="fill:#FFFFFF;" d="M447.6,98.7c-0.6,0.3-1.9,0.7-3.5,0.7c-3.7,0-6.1-2.4-6.1-6.1c0-3.7,2.6-6.3,6.5-6.3
				c1.3,0,2.5,0.3,3.1,0.6l-0.5,1.7c-0.5-0.3-1.4-0.6-2.6-0.6c-2.8,0-4.3,2-4.3,4.5c0,2.8,1.8,4.5,4.2,4.5c1.3,0,2.1-0.3,2.7-0.6
				L447.6,98.7z"/>
			<path style="fill:#FFFFFF;" d="M450.7,81.6h2.2v7.5h0c0.4-0.6,0.9-1.2,1.6-1.5c0.7-0.4,1.4-0.6,2.3-0.6c1.6,0,4.3,1,4.3,5.1v7.1
				h-2.2v-6.9c0-1.9-0.7-3.6-2.8-3.6c-1.4,0-2.6,1-3,2.2c-0.1,0.3-0.2,0.6-0.2,1v7.2h-2.2V81.6z"/>
			<path style="fill:#FFFFFF;" d="M466.6,93.6c0,2.9,2,4.2,4.2,4.2c1.6,0,2.5-0.3,3.4-0.6l0.4,1.6c-0.8,0.3-2.1,0.7-4.1,0.7
				c-3.8,0-6-2.4-6-6s2.2-6.4,5.7-6.4c4,0,5,3.4,5,5.6c0,0.4,0,0.8-0.1,1H466.6z M473.1,92c0-1.4-0.6-3.5-3.1-3.5
				c-2.2,0-3.2,2-3.4,3.5H473.1z"/>
			<path style="fill:#FFFFFF;" d="M478.7,91c0-1.4,0-2.6-0.1-3.7h1.9l0.1,2.3h0.1c0.6-1.6,1.9-2.6,3.4-2.6c0.3,0,0.4,0,0.6,0.1v2.1
				c-0.2,0-0.5-0.1-0.8-0.1c-1.6,0-2.7,1.2-3,2.8c-0.1,0.3-0.1,0.6-0.1,1v6.4h-2.2V91z"/>
			<path style="fill:#FFFFFF;" d="M502.9,91.4h-6.6v6h7.3v1.8h-9.5V82.5h9.2v1.8h-7v5.3h6.6V91.4z"/>
			<path style="fill:#FFFFFF;" d="M507,97c0.7,0.4,1.8,0.9,2.9,0.9c1.6,0,2.4-0.8,2.4-1.8c0-1-0.6-1.6-2.3-2.2
				c-2.2-0.8-3.2-2-3.2-3.4c0-1.9,1.6-3.5,4.2-3.5c1.2,0,2.3,0.3,3,0.7l-0.6,1.6c-0.5-0.3-1.4-0.7-2.5-0.7c-1.3,0-2,0.7-2,1.6
				c0,1,0.7,1.4,2.3,2c2.1,0.8,3.2,1.8,3.2,3.6c0,2.1-1.7,3.6-4.6,3.6c-1.3,0-2.6-0.3-3.4-0.8L507,97z"/>
			<path style="fill:#FFFFFF;" d="M517.7,91.1c0-1.5,0-2.8-0.1-3.9h2l0.1,2.1h0c0.9-1.5,2.3-2.3,4.3-2.3c2.9,0,5.2,2.4,5.2,6.1
				c0,4.3-2.7,6.4-5.5,6.4c-1.6,0-3-0.7-3.7-1.9h0v6.5h-2.2V91.1z M519.9,94.3c0,0.3,0,0.6,0.1,0.9c0.4,1.5,1.7,2.5,3.3,2.5
				c2.3,0,3.7-1.9,3.7-4.6c0-2.4-1.3-4.4-3.6-4.4c-1.5,0-2.9,1.1-3.3,2.7c-0.1,0.3-0.2,0.6-0.2,0.9V94.3z"/>
			<path style="fill:#FFFFFF;" d="M544,93.1c0,4.4-3.1,6.3-6.1,6.3c-3.3,0-5.8-2.4-5.8-6.2c0-4,2.7-6.3,6-6.3
				C541.6,87,544,89.5,544,93.1z M534.3,93.2c0,2.6,1.5,4.6,3.7,4.6c2.1,0,3.7-2,3.7-4.6c0-2-1-4.6-3.6-4.6S534.3,91,534.3,93.2z"/>
			<path style="fill:#FFFFFF;" d="M547.5,91c0-1.4,0-2.6-0.1-3.7h1.9l0.1,2.3h0.1c0.6-1.6,1.9-2.6,3.4-2.6c0.3,0,0.4,0,0.6,0.1v2.1
				c-0.2,0-0.5-0.1-0.8-0.1c-1.6,0-2.7,1.2-3,2.8c-0.1,0.3-0.1,0.6-0.1,1v6.4h-2.2V91z"/>
			<path style="fill:#FFFFFF;" d="M559.7,83.8v3.4h3.2v1.7h-3.2v6.4c0,1.5,0.4,2.3,1.7,2.3c0.6,0,1-0.1,1.3-0.1l0.1,1.6
				c-0.4,0.2-1.1,0.3-2,0.3c-1,0-1.9-0.3-2.4-0.9c-0.6-0.6-0.9-1.7-0.9-3.1v-6.5h-1.9v-1.7h1.9v-2.9L559.7,83.8z"/>
			<path style="fill:#FFFFFF;" d="M566,97c0.7,0.4,1.8,0.9,2.9,0.9c1.6,0,2.4-0.8,2.4-1.8c0-1-0.6-1.6-2.3-2.2
				c-2.2-0.8-3.2-2-3.2-3.4c0-1.9,1.6-3.5,4.2-3.5c1.2,0,2.3,0.3,3,0.7l-0.6,1.6c-0.5-0.3-1.4-0.7-2.5-0.7c-1.3,0-2,0.7-2,1.6
				c0,1,0.7,1.4,2.3,2c2.1,0.8,3.2,1.8,3.2,3.6c0,2.1-1.7,3.6-4.6,3.6c-1.3,0-2.6-0.3-3.4-0.8L566,97z"/>
			<path style="fill:#FFFFFF;" d="M587.2,99.2l-5.5-16.7h2.4l2.6,8.2c0.7,2.2,1.4,4.3,1.8,6.2h0c0.5-1.9,1.2-4,1.9-6.2l2.9-8.2h2.3
				l-6.1,16.7H587.2z"/>
			<path style="fill:#FFFFFF;" d="M598.4,93.6c0.1,2.9,2,4.2,4.2,4.2c1.6,0,2.5-0.3,3.4-0.6l0.4,1.6c-0.8,0.3-2.1,0.7-4.1,0.7
				c-3.7,0-6-2.4-6-6s2.2-6.4,5.7-6.4c4,0,5,3.4,5,5.6c0,0.4-0.1,0.8-0.1,1H598.4z M604.9,92c0-1.4-0.6-3.5-3.1-3.5
				c-2.2,0-3.2,2-3.4,3.5H604.9z"/>
			<path style="fill:#FFFFFF;" d="M610.5,91c0-1.4,0-2.6-0.1-3.7h1.9l0.1,2.3h0.1c0.6-1.6,1.9-2.6,3.4-2.6c0.3,0,0.4,0,0.6,0.1v2.1
				c-0.2,0-0.5-0.1-0.8-0.1c-1.6,0-2.7,1.2-3,2.8c-0.1,0.3-0.1,0.6-0.1,1v6.4h-2.2V91z"/>
			<path style="fill:#FFFFFF;" d="M619.3,99.2c0-0.8,0.1-2,0.1-3.1V81.6h2.2v7.5h0.1c0.8-1.3,2.2-2.2,4.2-2.2c3,0,5.2,2.5,5.1,6.1
				c0,4.3-2.7,6.4-5.5,6.4c-1.8,0-3.2-0.7-4.1-2.2h-0.1l-0.1,2H619.3z M621.5,94.4c0,0.3,0.1,0.5,0.1,0.8c0.4,1.5,1.7,2.5,3.3,2.5
				c2.3,0,3.7-1.9,3.7-4.6c0-2.4-1.3-4.4-3.6-4.4c-1.5,0-2.9,1-3.4,2.7c0,0.2-0.1,0.5-0.1,0.9V94.4z"/>
			<path style="fill:#FFFFFF;" d="M641.2,99.2l-0.2-1.5h-0.1c-0.7,0.9-2,1.8-3.7,1.8c-2.5,0-3.7-1.7-3.7-3.4c0-2.9,2.6-4.5,7.3-4.4
				v-0.2c0-1-0.3-2.8-2.8-2.8c-1.1,0-2.3,0.3-3.2,0.9l-0.5-1.4c1-0.6,2.5-1.1,4-1.1c3.7,0,4.6,2.5,4.6,4.9v4.5c0,1,0.1,2.1,0.2,2.9
				H641.2z M640.9,93.1c-2.4,0-5.2,0.4-5.2,2.7c0,1.4,1,2.1,2.1,2.1c1.6,0,2.6-1,2.9-2c0.1-0.2,0.1-0.5,0.1-0.7V93.1z"/>
			<path style="fill:#FFFFFF;" d="M647.1,90.5c0-1.2,0-2.2-0.1-3.2h2l0.1,2h0.1c0.6-1.1,2-2.2,4-2.2c1.7,0,4.3,1,4.3,5.1v7.1h-2.2
				v-6.9c0-1.9-0.7-3.5-2.8-3.5c-1.5,0-2.6,1-3,2.2c-0.1,0.3-0.2,0.6-0.2,1v7.2h-2.2V90.5z"/>
			<path style="fill:#FFFFFF;" d="M672.3,81.6v14.5c0,1.1,0,2.3,0.1,3.1h-2l-0.1-2.1h0c-0.7,1.3-2.2,2.3-4.2,2.3
				c-2.9,0-5.2-2.4-5.2-6.1c0-4,2.5-6.4,5.5-6.4c1.9,0,3.1,0.9,3.7,1.8h0.1v-7.1H672.3z M670.1,92.1c0-0.3,0-0.6-0.1-0.9
				c-0.3-1.4-1.5-2.5-3.2-2.5c-2.3,0-3.6,2-3.6,4.6c0,2.4,1.2,4.4,3.6,4.4c1.5,0,2.8-1,3.2-2.6c0.1-0.3,0.1-0.6,0.1-0.9V92.1z"/>
			<path style="fill:#FFFFFF;" d="M310.5,112.2h9.1v1.8h-6.9v5.5h6.4v1.8h-6.4v7.5h-2.2V112.2z"/>
			<path style="fill:#FFFFFF;" d="M324.2,123.2c0.1,2.9,2,4.2,4.2,4.2c1.6,0,2.5-0.3,3.4-0.6l0.4,1.6c-0.8,0.3-2.1,0.7-4.1,0.7
				c-3.7,0-6-2.4-6-6c0-3.6,2.2-6.4,5.7-6.4c4,0,5,3.4,5,5.6c0,0.4-0.1,0.8-0.1,1H324.2z M330.7,121.7c0-1.4-0.6-3.5-3.1-3.5
				c-2.2,0-3.2,2-3.4,3.5H330.7z M331.3,111.7l-3.1,3.5h-1.6l2.2-3.5H331.3z"/>
			<path style="fill:#FFFFFF;" d="M347,111.3v14.5c0,1.1,0,2.3,0.1,3.1h-2l-0.1-2.1H345c-0.7,1.3-2.2,2.3-4.2,2.3
				c-2.9,0-5.2-2.4-5.2-6.1c0-4,2.5-6.4,5.5-6.4c1.9,0,3.1,0.9,3.7,1.8h0.1v-7.1H347z M344.8,121.7c0-0.3,0-0.6-0.1-0.9
				c-0.3-1.4-1.5-2.5-3.2-2.5c-2.3,0-3.6,2-3.6,4.6c0,2.4,1.2,4.4,3.6,4.4c1.5,0,2.8-1,3.2-2.6c0.1-0.3,0.1-0.6,0.1-0.9V121.7z"/>
			<path style="fill:#FFFFFF;" d="M352.6,123.2c0.1,2.9,2,4.2,4.2,4.2c1.6,0,2.5-0.3,3.4-0.6l0.4,1.6c-0.8,0.3-2.1,0.7-4.1,0.7
				c-3.7,0-6-2.4-6-6c0-3.6,2.2-6.4,5.7-6.4c4,0,5,3.4,5,5.6c0,0.4-0.1,0.8-0.1,1H352.6z M359.1,121.7c0-1.4-0.6-3.5-3.1-3.5
				c-2.2,0-3.2,2-3.4,3.5H359.1z M359.6,111.7l-3.1,3.5H355l2.2-3.5H359.6z"/>
			<path style="fill:#FFFFFF;" d="M364.6,120.6c0-1.4,0-2.6-0.1-3.7h1.9l0.1,2.3h0.1c0.6-1.6,1.9-2.6,3.4-2.6c0.3,0,0.4,0,0.6,0.1
				v2.1c-0.2,0-0.5-0.1-0.8-0.1c-1.6,0-2.7,1.2-3,2.8c-0.1,0.3-0.1,0.6-0.1,1v6.4h-2.2V120.6z"/>
			<path style="fill:#FFFFFF;" d="M380.3,128.8l-0.2-1.5h-0.1c-0.7,0.9-2,1.8-3.7,1.8c-2.5,0-3.7-1.7-3.7-3.4c0-2.9,2.6-4.5,7.3-4.4
				V121c0-1-0.3-2.8-2.8-2.8c-1.1,0-2.3,0.3-3.2,0.9l-0.5-1.4c1-0.6,2.5-1.1,4-1.1c3.7,0,4.6,2.5,4.6,4.9v4.5c0,1,0,2,0.2,2.9H380.3
				z M380,122.7c-2.4,0-5.2,0.4-5.2,2.7c0,1.4,1,2.1,2.1,2.1c1.6,0,2.6-1,2.9-2c0.1-0.2,0.1-0.5,0.1-0.7V122.7z"/>
			<path style="fill:#FFFFFF;" d="M388.8,113.4v3.4h3.2v1.7h-3.2v6.4c0,1.5,0.4,2.3,1.7,2.3c0.6,0,1-0.1,1.3-0.1l0.1,1.6
				c-0.4,0.2-1.1,0.3-2,0.3c-1,0-1.9-0.3-2.4-0.9c-0.6-0.6-0.9-1.7-0.9-3.1v-6.5h-1.9v-1.7h1.9V114L388.8,113.4z"/>
			<path style="fill:#FFFFFF;" d="M397.5,113.5c0,0.7-0.5,1.3-1.4,1.3c-0.8,0-1.3-0.6-1.3-1.3c0-0.8,0.6-1.4,1.4-1.4
				C396.9,112.2,397.5,112.7,397.5,113.5z M395,128.8v-12h2.2v12H395z"/>
			<path style="fill:#FFFFFF;" d="M412.6,122.7c0,4.4-3.1,6.3-6.1,6.3c-3.3,0-5.8-2.4-5.8-6.2c0-4,2.7-6.3,6-6.3
				C410.2,116.6,412.6,119.1,412.6,122.7z M402.9,122.9c0,2.6,1.5,4.6,3.7,4.6c2.1,0,3.7-2,3.7-4.6c0-2-1-4.6-3.6-4.6
				C404,118.2,402.9,120.6,402.9,122.9z"/>
			<path style="fill:#FFFFFF;" d="M416.1,120.1c0-1.2,0-2.2-0.1-3.2h2l0.1,2h0.1c0.6-1.1,2-2.2,4-2.2c1.7,0,4.3,1,4.3,5.1v7.1h-2.2
				v-6.9c0-1.9-0.7-3.5-2.8-3.5c-1.5,0-2.6,1-3,2.2c-0.1,0.3-0.2,0.6-0.2,1v7.2h-2.2V120.1z"/>
			<path style="fill:#FFFFFF;" d="M437,126.2c1,0.6,2.4,1.1,3.9,1.1c2.2,0,3.5-1.2,3.5-2.8c0-1.6-0.9-2.4-3.2-3.3
				c-2.8-1-4.5-2.4-4.5-4.7c0-2.6,2.2-4.5,5.5-4.5c1.7,0,3,0.4,3.7,0.8l-0.6,1.8c-0.6-0.3-1.7-0.8-3.2-0.8c-2.3,0-3.2,1.4-3.2,2.5
				c0,1.6,1,2.3,3.4,3.2c2.9,1.1,4.3,2.4,4.3,4.9c0,2.6-1.9,4.8-5.9,4.8c-1.6,0-3.4-0.5-4.3-1.1L437,126.2z"/>
			<path style="fill:#FFFFFF;" d="M460.3,125.6c0,1.2,0,2.3,0.1,3.3h-2l-0.1-2h0c-0.6,1-1.9,2.2-4,2.2c-1.9,0-4.2-1-4.2-5.2v-7h2.2
				v6.6c0,2.3,0.7,3.8,2.7,3.8c1.5,0,2.5-1,2.9-2c0.1-0.3,0.2-0.7,0.2-1.1v-7.3h2.2V125.6z"/>
			<path style="fill:#FFFFFF;" d="M467,113.5c0,0.7-0.5,1.3-1.4,1.3c-0.8,0-1.3-0.6-1.3-1.3c0-0.8,0.6-1.4,1.4-1.4
				C466.5,112.2,467,112.7,467,113.5z M464.5,128.8v-12h2.2v12H464.5z"/>
			<path style="fill:#FFFFFF;" d="M470.6,126.6c0.7,0.4,1.8,0.9,2.9,0.9c1.6,0,2.4-0.8,2.4-1.8c0-1-0.6-1.6-2.3-2.2
				c-2.2-0.8-3.2-2-3.2-3.4c0-1.9,1.6-3.5,4.2-3.5c1.2,0,2.3,0.3,3,0.7l-0.6,1.6c-0.5-0.3-1.4-0.7-2.5-0.7c-1.3,0-2,0.7-2,1.6
				c0,1,0.7,1.4,2.3,2c2.1,0.8,3.2,1.8,3.2,3.6c0,2.1-1.7,3.6-4.6,3.6c-1.3,0-2.6-0.3-3.4-0.8L470.6,126.6z"/>
			<path style="fill:#FFFFFF;" d="M481.1,126.6c0.7,0.4,1.8,0.9,2.9,0.9c1.6,0,2.4-0.8,2.4-1.8c0-1-0.6-1.6-2.3-2.2
				c-2.2-0.8-3.2-2-3.2-3.4c0-1.9,1.6-3.5,4.2-3.5c1.2,0,2.3,0.3,3,0.7l-0.6,1.6c-0.5-0.3-1.4-0.7-2.5-0.7c-1.3,0-2,0.7-2,1.6
				c0,1,0.7,1.4,2.3,2c2.1,0.8,3.2,1.8,3.2,3.6c0,2.1-1.7,3.6-4.6,3.6c-1.3,0-2.6-0.3-3.4-0.8L481.1,126.6z"/>
			<path style="fill:#FFFFFF;" d="M493.3,123.2c0.1,2.9,2,4.2,4.2,4.2c1.6,0,2.5-0.3,3.4-0.6l0.4,1.6c-0.8,0.3-2.1,0.7-4.1,0.7
				c-3.7,0-6-2.4-6-6c0-3.6,2.2-6.4,5.7-6.4c4,0,5,3.4,5,5.6c0,0.4-0.1,0.8-0.1,1H493.3z M499.8,121.7c0-1.4-0.6-3.5-3.1-3.5
				c-2.2,0-3.2,2-3.4,3.5H499.8z"/>
			<path style="fill:#FFFFFF;" d="M522.4,111.3v14.5c0,1.1,0,2.3,0.1,3.1h-2l-0.1-2.1h-0.1c-0.7,1.3-2.2,2.3-4.2,2.3
				c-2.9,0-5.2-2.4-5.2-6.1c0-4,2.5-6.4,5.5-6.4c1.9,0,3.1,0.9,3.7,1.8h0.1v-7.1H522.4z M520.1,121.7c0-0.3,0-0.6-0.1-0.9
				c-0.3-1.4-1.5-2.5-3.2-2.5c-2.3,0-3.6,2-3.6,4.6c0,2.4,1.2,4.4,3.6,4.4c1.5,0,2.8-1,3.2-2.6c0.1-0.3,0.1-0.6,0.1-0.9V121.7z"/>
			<path style="fill:#FFFFFF;" d="M526.1,117.9c0.6-2.1,1.7-4.7,2.3-5.9l1.4-0.1c-0.5,1.5-1.2,4-1.5,5.8L526.1,117.9z"/>
			<path style="fill:#FFFFFF;" d="M541.9,121h-6.6v6h7.3v1.8h-9.5v-16.6h9.2v1.8h-7v5.3h6.6V121z"/>
			<path style="fill:#FFFFFF;" d="M546,126.6c0.7,0.4,1.8,0.9,2.9,0.9c1.6,0,2.4-0.8,2.4-1.8c0-1-0.6-1.6-2.3-2.2
				c-2.2-0.8-3.2-2-3.2-3.4c0-1.9,1.6-3.5,4.2-3.5c1.2,0,2.3,0.3,3,0.7l-0.6,1.6c-0.5-0.3-1.4-0.7-2.5-0.7c-1.3,0-2,0.7-2,1.6
				c0,1,0.7,1.4,2.3,2c2.1,0.8,3.2,1.8,3.2,3.6c0,2.1-1.7,3.6-4.6,3.6c-1.3,0-2.6-0.3-3.4-0.8L546,126.6z"/>
			<path style="fill:#FFFFFF;" d="M556.7,120.8c0-1.5-0.1-2.8-0.1-3.9h2l0.1,2.1h0.1c0.9-1.5,2.3-2.3,4.3-2.3c2.9,0,5.2,2.4,5.2,6.1
				c0,4.3-2.7,6.4-5.5,6.4c-1.6,0-3-0.7-3.7-1.9h-0.1v6.5h-2.2V120.8z M558.9,124c0,0.3,0.1,0.6,0.1,0.9c0.4,1.5,1.7,2.5,3.3,2.5
				c2.3,0,3.7-1.9,3.7-4.6c0-2.4-1.3-4.4-3.6-4.4c-1.5,0-2.9,1.1-3.3,2.7c-0.1,0.3-0.2,0.6-0.2,0.9V124z"/>
			<path style="fill:#FFFFFF;" d="M583,122.7c0,4.4-3.1,6.3-6.1,6.3c-3.3,0-5.8-2.4-5.8-6.2c0-4,2.7-6.3,6-6.3
				C580.6,116.6,583,119.1,583,122.7z M573.3,122.9c0,2.6,1.5,4.6,3.7,4.6c2.1,0,3.7-2,3.7-4.6c0-2-1-4.6-3.6-4.6
				C574.4,118.2,573.3,120.6,573.3,122.9z"/>
			<path style="fill:#FFFFFF;" d="M586.5,120.6c0-1.4,0-2.6-0.1-3.7h1.9l0.1,2.3h0.1c0.6-1.6,1.9-2.6,3.4-2.6c0.3,0,0.4,0,0.6,0.1
				v2.1c-0.2,0-0.5-0.1-0.8-0.1c-1.6,0-2.7,1.2-3,2.8c-0.1,0.3-0.1,0.6-0.1,1v6.4h-2.2V120.6z"/>
			<path style="fill:#FFFFFF;" d="M598.7,113.4v3.4h3.2v1.7h-3.2v6.4c0,1.5,0.4,2.3,1.7,2.3c0.6,0,1-0.1,1.3-0.1l0.1,1.6
				c-0.4,0.2-1.1,0.3-2,0.3c-1,0-1.9-0.3-2.4-0.9c-0.6-0.6-0.9-1.7-0.9-3.1v-6.5h-1.9v-1.7h1.9V114L598.7,113.4z"/>
			<path style="fill:#FFFFFF;" d="M605,126.6c0.7,0.4,1.8,0.9,2.9,0.9c1.6,0,2.4-0.8,2.4-1.8c0-1-0.6-1.6-2.3-2.2
				c-2.2-0.8-3.2-2-3.2-3.4c0-1.9,1.6-3.5,4.2-3.5c1.2,0,2.3,0.3,3,0.7l-0.6,1.6c-0.5-0.3-1.4-0.7-2.5-0.7c-1.3,0-2,0.7-2,1.6
				c0,1,0.7,1.4,2.3,2c2.1,0.8,3.2,1.8,3.2,3.6c0,2.1-1.7,3.6-4.6,3.6c-1.3,0-2.6-0.3-3.4-0.8L605,126.6z"/>
			<path style="fill:#FFFFFF;" d="M310.5,141.8h9.1v1.8h-6.9v5.5h6.4v1.8h-6.4v7.5h-2.2V141.8z"/>
			<path style="fill:#FFFFFF;" d="M324.2,152.9c0.1,2.9,2,4.2,4.2,4.2c1.6,0,2.5-0.3,3.4-0.6l0.4,1.6c-0.8,0.3-2.1,0.7-4.1,0.7
				c-3.7,0-6-2.4-6-6c0-3.6,2.2-6.4,5.7-6.4c4,0,5,3.4,5,5.6c0,0.4-0.1,0.8-0.1,1H324.2z M330.7,151.3c0-1.4-0.6-3.5-3.1-3.5
				c-2.2,0-3.2,2-3.4,3.5H330.7z"/>
			<path style="fill:#FFFFFF;" d="M347,140.9v14.5c0,1.1,0,2.3,0.1,3.1h-2l-0.1-2.1H345c-0.7,1.3-2.2,2.3-4.2,2.3
				c-2.9,0-5.2-2.4-5.2-6.1c0-4,2.5-6.4,5.5-6.4c1.9,0,3.1,0.9,3.7,1.8h0.1v-7.1H347z M344.8,151.4c0-0.3,0-0.6-0.1-0.9
				c-0.3-1.4-1.5-2.5-3.2-2.5c-2.3,0-3.6,2-3.6,4.6c0,2.4,1.2,4.4,3.6,4.4c1.5,0,2.8-1,3.2-2.6c0.1-0.3,0.1-0.6,0.1-0.9V151.4z"/>
			<path style="fill:#FFFFFF;" d="M352.6,152.9c0.1,2.9,2,4.2,4.2,4.2c1.6,0,2.5-0.3,3.4-0.6l0.4,1.6c-0.8,0.3-2.1,0.7-4.1,0.7
				c-3.7,0-6-2.4-6-6c0-3.6,2.2-6.4,5.7-6.4c4,0,5,3.4,5,5.6c0,0.4-0.1,0.8-0.1,1H352.6z M359.1,151.3c0-1.4-0.6-3.5-3.1-3.5
				c-2.2,0-3.2,2-3.4,3.5H359.1z"/>
			<path style="fill:#FFFFFF;" d="M364.6,150.2c0-1.4,0-2.6-0.1-3.7h1.9l0.1,2.3h0.1c0.6-1.6,1.9-2.6,3.4-2.6c0.3,0,0.4,0,0.6,0.1
				v2.1c-0.2,0-0.5-0.1-0.8-0.1c-1.6,0-2.7,1.2-3,2.8c-0.1,0.3-0.1,0.6-0.1,1v6.4h-2.2V150.2z"/>
			<path style="fill:#FFFFFF;" d="M380.3,158.5l-0.2-1.5h-0.1c-0.7,0.9-2,1.8-3.7,1.8c-2.5,0-3.7-1.7-3.7-3.4c0-2.9,2.6-4.5,7.3-4.4
				v-0.2c0-1-0.3-2.8-2.8-2.8c-1.1,0-2.3,0.3-3.2,0.9l-0.5-1.4c1-0.6,2.5-1.1,4-1.1c3.7,0,4.6,2.5,4.6,4.9v4.5c0,1,0,2,0.2,2.9
				H380.3z M380,152.4c-2.4,0-5.2,0.4-5.2,2.7c0,1.4,1,2.1,2.1,2.1c1.6,0,2.6-1,2.9-2c0.1-0.2,0.1-0.5,0.1-0.7V152.4z"/>
			<path style="fill:#FFFFFF;" d="M385.1,157.2l5.5-7c0.5-0.6,1-1.2,1.6-1.9v0h-6.6v-1.8h9.3l0,1.4l-5.4,6.9c-0.5,0.7-1,1.3-1.6,1.9
				v0h7.1v1.7h-9.9V157.2z"/>
			<path style="fill:#FFFFFF;" d="M400.4,143.1c0,0.7-0.5,1.3-1.4,1.3c-0.8,0-1.3-0.6-1.3-1.3c0-0.8,0.6-1.4,1.4-1.4
				C399.8,141.8,400.4,142.4,400.4,143.1z M397.9,158.5v-12h2.2v12H397.9z"/>
			<path style="fill:#FFFFFF;" d="M415.5,152.4c0,4.4-3.1,6.3-6.1,6.3c-3.3,0-5.8-2.4-5.8-6.2c0-4,2.7-6.3,6-6.3
				C413.1,146.2,415.5,148.7,415.5,152.4z M405.8,152.5c0,2.6,1.5,4.6,3.7,4.6c2.1,0,3.7-2,3.7-4.6c0-2-1-4.6-3.6-4.6
				C406.9,147.9,405.8,150.2,405.8,152.5z"/>
			<path style="fill:#FFFFFF;" d="M418.9,149.7c0-1.2,0-2.2-0.1-3.2h2l0.1,2h0.1c0.6-1.1,2-2.2,4-2.2c1.7,0,4.3,1,4.3,5.1v7.1h-2.2
				v-6.9c0-1.9-0.7-3.5-2.8-3.5c-1.5,0-2.6,1-3,2.2c-0.1,0.3-0.2,0.6-0.2,1v7.2h-2.2V149.7z"/>
			<path style="fill:#FFFFFF;" d="M434.9,152.9c0.1,2.9,2,4.2,4.2,4.2c1.6,0,2.5-0.3,3.4-0.6l0.4,1.6c-0.8,0.3-2.1,0.7-4.1,0.7
				c-3.7,0-6-2.4-6-6c0-3.6,2.2-6.4,5.7-6.4c4,0,5,3.4,5,5.6c0,0.4-0.1,0.8-0.1,1H434.9z M441.3,151.3c0-1.4-0.6-3.5-3.1-3.5
				c-2.2,0-3.2,2-3.4,3.5H441.3z"/>
			<path style="fill:#FFFFFF;" d="M453.2,155.8c1,0.6,2.4,1.1,3.9,1.1c2.2,0,3.5-1.2,3.5-2.8c0-1.6-0.9-2.4-3.2-3.3
				c-2.8-1-4.5-2.4-4.5-4.7c0-2.6,2.2-4.5,5.5-4.5c1.7,0,3,0.4,3.7,0.8l-0.6,1.8c-0.6-0.3-1.7-0.8-3.2-0.8c-2.3,0-3.2,1.4-3.2,2.5
				c0,1.6,1,2.3,3.4,3.2c2.9,1.1,4.3,2.4,4.3,4.9c0,2.6-1.9,4.8-5.9,4.8c-1.6,0-3.4-0.5-4.3-1.1L453.2,155.8z"/>
			<path style="fill:#FFFFFF;" d="M466.6,146.5l2.4,6.7c0.4,1.1,0.7,2.1,1,3.1h0.1c0.3-1,0.6-2,1-3.1l2.4-6.7h2.3l-4.8,12h-2.1
				l-4.6-12H466.6z"/>
			<path style="fill:#FFFFFF;" d="M481.1,143.1c0,0.7-0.5,1.3-1.4,1.3c-0.8,0-1.3-0.6-1.3-1.3c0-0.8,0.6-1.4,1.4-1.4
				C480.6,141.8,481.1,142.4,481.1,143.1z M478.6,158.5v-12h2.2v12H478.6z"/>
			<path style="fill:#FFFFFF;" d="M483.8,157.2l5.5-7c0.5-0.6,1-1.2,1.6-1.9v0h-6.6v-1.8h9.3l0,1.4l-5.4,6.9c-0.5,0.7-1,1.3-1.6,1.9
				v0h7.1v1.7h-9.9V157.2z"/>
			<path style="fill:#FFFFFF;" d="M495.9,157.2l5.5-7c0.5-0.6,1-1.2,1.6-1.9v0h-6.6v-1.8h9.3l0,1.4l-5.4,6.9c-0.5,0.7-1,1.3-1.6,1.9
				v0h7.1v1.7h-9.9V157.2z"/>
			<path style="fill:#FFFFFF;" d="M509.9,152.9c0.1,2.9,2,4.2,4.2,4.2c1.6,0,2.5-0.3,3.4-0.6l0.4,1.6c-0.8,0.3-2.1,0.7-4.1,0.7
				c-3.7,0-6-2.4-6-6c0-3.6,2.2-6.4,5.7-6.4c4,0,5,3.4,5,5.6c0,0.4-0.1,0.8-0.1,1H509.9z M516.4,151.3c0-1.4-0.6-3.5-3.1-3.5
				c-2.2,0-3.2,2-3.4,3.5H516.4z"/>
			<path style="fill:#FFFFFF;" d="M521.9,150.2c0-1.4,0-2.6-0.1-3.7h1.9l0.1,2.3h0.1c0.6-1.6,1.9-2.6,3.4-2.6c0.3,0,0.4,0,0.6,0.1
				v2.1c-0.2,0-0.5-0.1-0.8-0.1c-1.6,0-2.7,1.2-3,2.8c-0.1,0.3-0.1,0.6-0.1,1v6.4h-2.2V150.2z"/>
			<path style="fill:#FFFFFF;" d="M537.6,158.5l-0.2-1.5h-0.1c-0.7,0.9-2,1.8-3.7,1.8c-2.5,0-3.7-1.7-3.7-3.4c0-2.9,2.6-4.5,7.3-4.4
				v-0.2c0-1-0.3-2.8-2.8-2.8c-1.1,0-2.3,0.3-3.2,0.9l-0.5-1.4c1-0.6,2.5-1.1,4-1.1c3.7,0,4.6,2.5,4.6,4.9v4.5c0,1,0,2,0.2,2.9
				H537.6z M537.3,152.4c-2.4,0-5.2,0.4-5.2,2.7c0,1.4,1,2.1,2.1,2.1c1.6,0,2.6-1,2.9-2c0.1-0.2,0.1-0.5,0.1-0.7V152.4z"/>
			<path style="fill:#FFFFFF;" d="M560.7,140.9v14.5c0,1.1,0,2.3,0.1,3.1h-2l-0.1-2.1h0c-0.7,1.3-2.2,2.3-4.2,2.3
				c-2.9,0-5.2-2.4-5.2-6.1c0-4,2.5-6.4,5.5-6.4c1.9,0,3.1,0.9,3.7,1.8h0v-7.1H560.7z M558.5,151.4c0-0.3,0-0.6-0.1-0.9
				c-0.3-1.4-1.5-2.5-3.2-2.5c-2.3,0-3.6,2-3.6,4.6c0,2.4,1.2,4.4,3.6,4.4c1.5,0,2.8-1,3.2-2.6c0.1-0.3,0.1-0.6,0.1-0.9V151.4z"/>
			<path style="fill:#FFFFFF;" d="M567.4,143.1c0,0.7-0.5,1.3-1.4,1.3c-0.8,0-1.3-0.6-1.3-1.3c0-0.8,0.6-1.4,1.4-1.4
				C566.9,141.8,567.4,142.4,567.4,143.1z M564.9,158.5v-12h2.2v12H564.9z"/>
			<path style="fill:#FFFFFF;" d="M586.9,150.7h-6.6v6h7.3v1.8h-9.5v-16.7h9.2v1.8h-7v5.3h6.6V150.7z"/>
			<path style="fill:#FFFFFF;" d="M590.9,156.2c0.7,0.4,1.8,0.9,2.9,0.9c1.6,0,2.4-0.8,2.4-1.8c0-1-0.6-1.6-2.3-2.2
				c-2.2-0.8-3.2-2-3.2-3.4c0-1.9,1.6-3.5,4.2-3.5c1.2,0,2.3,0.3,3,0.7l-0.6,1.6c-0.5-0.3-1.4-0.7-2.5-0.7c-1.3,0-2,0.7-2,1.6
				c0,1,0.7,1.4,2.3,2c2.1,0.8,3.2,1.8,3.2,3.6c0,2.1-1.7,3.6-4.6,3.6c-1.3,0-2.6-0.3-3.4-0.8L590.9,156.2z"/>
			<path style="fill:#FFFFFF;" d="M601.7,150.4c0-1.5-0.1-2.8-0.1-3.9h2l0.1,2.1h0.1c0.9-1.5,2.3-2.3,4.3-2.3c2.9,0,5.2,2.4,5.2,6.1
				c0,4.3-2.7,6.4-5.5,6.4c-1.6,0-3-0.7-3.7-1.9h-0.1v6.5h-2.2V150.4z M603.9,153.6c0,0.3,0.1,0.6,0.1,0.9c0.4,1.5,1.7,2.5,3.3,2.5
				c2.3,0,3.7-1.9,3.7-4.6c0-2.4-1.3-4.4-3.6-4.4c-1.5,0-2.9,1.1-3.3,2.7c-0.1,0.3-0.2,0.6-0.2,0.9V153.6z"/>
			<path style="fill:#FFFFFF;" d="M627.9,152.4c0,4.4-3.1,6.3-6.1,6.3c-3.3,0-5.8-2.4-5.8-6.2c0-4,2.7-6.3,6-6.3
				C625.5,146.2,627.9,148.7,627.9,152.4z M618.2,152.5c0,2.6,1.5,4.6,3.7,4.6c2.1,0,3.7-2,3.7-4.6c0-2-1-4.6-3.6-4.6
				C619.4,147.9,618.2,150.2,618.2,152.5z"/>
			<path style="fill:#FFFFFF;" d="M631.4,150.2c0-1.4,0-2.6-0.1-3.7h1.9l0.1,2.3h0.1c0.6-1.6,1.9-2.6,3.4-2.6c0.3,0,0.4,0,0.6,0.1
				v2.1c-0.2,0-0.5-0.1-0.8-0.1c-1.6,0-2.7,1.2-3,2.8c-0.1,0.3-0.1,0.6-0.1,1v6.4h-2.2V150.2z"/>
			<path style="fill:#FFFFFF;" d="M643.7,143.1v3.4h3.2v1.7h-3.2v6.4c0,1.5,0.4,2.3,1.7,2.3c0.6,0,1-0.1,1.3-0.1l0.1,1.6
				c-0.4,0.2-1.1,0.3-2,0.3c-1,0-1.9-0.3-2.4-0.9c-0.6-0.6-0.9-1.7-0.9-3.1v-6.5h-1.9v-1.7h1.9v-2.9L643.7,143.1z"/>
			<path style="fill:#FFFFFF;" d="M649.9,156.2c0.7,0.4,1.8,0.9,2.9,0.9c1.6,0,2.4-0.8,2.4-1.8c0-1-0.6-1.6-2.3-2.2
				c-2.2-0.8-3.2-2-3.2-3.4c0-1.9,1.6-3.5,4.2-3.5c1.2,0,2.3,0.3,3,0.7l-0.6,1.6c-0.5-0.3-1.4-0.7-2.5-0.7c-1.3,0-2,0.7-2,1.6
				c0,1,0.7,1.4,2.3,2c2.1,0.8,3.2,1.8,3.2,3.6c0,2.1-1.7,3.6-4.6,3.6c-1.3,0-2.6-0.3-3.4-0.8L649.9,156.2z"/>
		</g>
	</g>
</g>
</svg>
