<?xml version="1.0" encoding="utf-8"?>
<svg version="1.1" xmlns="http://www.w3.org/2000/svg" xmlns:xlink="http://www.w3.org/1999/xlink" height="39" width="34">
  <defs>
    <path id="path-0" opacity="1" fill-rule="evenodd" d="M11.501708984375,18.525001525878906 C11.501708984375,17.335498809814453 12.375991821289062,16.36050033569336 13.483428955078125,16.36050033569336 C14.590850830078125,16.36050033569336 15.484573364257812,17.335498809814453 15.465133666992188,18.525001525878906 C15.465133666992188,19.714500427246094 14.590850830078125,20.689498901367188 13.483428955078125,20.689498901367188 C12.395416259765625,20.689498901367188 11.501708984375,19.714500427246094 11.501708984375,18.525001525878906 L11.501708984375,18.525001525878906ZM18.5931396484375,18.525001525878906 C18.5931396484375,17.335498809814453 19.467422485351562,16.36050033569336 20.574859619140625,16.36050033569336 C21.682281494140625,16.36050033569336 22.556564331054688,17.335498809814453 22.556564331054688,18.525001525878906 C22.556564331054688,19.714500427246094 21.682281494140625,20.689498901367188 20.574859619140625,20.689498901367188 C19.486846923828125,20.689498901367188 18.5931396484375,19.714500427246094 18.5931396484375,18.525001525878906 L18.5931396484375,18.525001525878906Z"/>
    <path id="path-1" opacity="1" fill-rule="evenodd" d="M3.9828567504882812,0 L30.01715087890625,0 C32.21257019042969,0 34,1.7939987182617188 34,4.016998291015625 L34,39 L29.822860717773438,35.29499816894531 L27.472000122070312,33.111000061035156 L24.985137939453125,30.790496826171875 L26.014862060546875,34.39799499511719 L3.9828567504882812,34.39799499511719 C1.7874298095703125,34.39799499511719 0,32.60400390625 0,30.380996704101562 L0,4.016998291015625 C0,1.7939987182617188 1.7874298095703125,0 3.9828567504882812,0 L3.9828567504882812,0ZM21.235427856445312,23.887500762939453 C21.818283081054688,24.628501892089844 22.517715454101562,25.466995239257812 22.517715454101562,25.466995239257812 C26.811431884765625,25.33049774169922 28.462860107421875,22.50299835205078 28.462860107421875,22.50299835205078 C28.462860107421875,16.2239990234375 25.665145874023438,11.134498596191406 25.665145874023438,11.134498596191406 C22.867431640625,9.028499603271484 20.205718994140625,9.086997985839844 20.205718994140625,9.086997985839844 L19.9337158203125,9.398998260498047 C23.236572265625,10.41299819946289 24.77142333984375,11.875499725341797 24.77142333984375,11.875499725341797 C22.7508544921875,10.763999938964844 20.769149780273438,10.217998504638672 18.923431396484375,10.003498077392578 C17.524566650390625,9.84749984741211 16.184005737304688,9.88650131225586 14.998855590820312,10.042499542236328 C14.882293701171875,10.042499542236328 14.785140991210938,10.062000274658203 14.6685791015625,10.081501007080078 C13.988571166992188,10.139999389648438 12.337142944335938,10.393501281738281 10.258285522460938,11.310001373291016 C9.5394287109375,11.641498565673828 9.11199951171875,11.875499725341797 9.11199951171875,11.875499725341797 C9.11199951171875,11.875499725341797 10.724578857421875,10.334999084472656 14.221710205078125,9.320999145507812 L14.027435302734375,9.086997985839844 C14.027435302734375,9.086997985839844 11.36572265625,9.028499603271484 8.5679931640625,11.134498596191406 C8.5679931640625,11.134498596191406 5.770286560058594,16.2239990234375 5.770286560058594,22.50299835205078 C5.770286560058594,22.50299835205078 7.40228271484375,25.33049774169922 11.695999145507812,25.466995239257812 C11.695999145507812,25.466995239257812 12.41485595703125,24.589500427246094 12.997711181640625,23.848499298095703 C10.530288696289062,23.107498168945312 9.59771728515625,21.547500610351562 9.59771728515625,21.547500610351562 C9.59771728515625,21.547500610351562 9.792007446289062,21.683998107910156 10.141708374023438,21.878997802734375 C10.15008544921875,21.887405395507812 10.1873779296875,21.910320281982422 10.217727661132812,21.928974151611328 C10.25775146484375,21.95357894897461 10.285736083984375,21.97077178955078 10.219436645507812,21.9375 C10.8800048828125,22.307998657226562 11.36572265625,22.522499084472656 11.812576293945312,22.697998046875 C12.609146118164062,23.009998321533203 13.561141967773438,23.321998596191406 14.6685791015625,23.5364990234375 C16.125717163085938,23.80950164794922 17.835433959960938,23.906997680664062 19.700576782226562,23.555999755859375 C20.61370849609375,23.400001525878906 21.546279907226562,23.126998901367188 22.517715454101562,22.717498779296875 C23.197723388671875,22.464000701904297 23.955429077148438,22.09349822998047 24.751998901367188,21.567001342773438 C24.751998901367188,21.567001342773438 23.78057861328125,23.166000366210938 21.235427856445312,23.887500762939453 L21.235427856445312,23.887500762939453Z"/>
  </defs>
  <g opacity="1">
    <g opacity="1">
      <use xlink:href="#path-0" fill="rgb(255,255,255)" fill-opacity="1"/>
    </g>
    <g opacity="1">
      <use xlink:href="#path-1" fill="rgb(255,255,255)" fill-opacity="1"/>
    </g>
  </g>
</svg>