<?xml version="1.0" encoding="utf-8"?>
<svg version="1.1" xmlns="http://www.w3.org/2000/svg" xmlns:xlink="http://www.w3.org/1999/xlink" height="34.00000000000023" width="34">
  <defs>
    <rect id="rect-0" opacity="1" x="0" y="0" width="34" height="34.00000000000023" rx="0" ry="0"/>
    <path id="path-1" opacity="1" fill-rule="evenodd" d="M4.504451090665422,25.203350221951347 C6.76723330210155,26.63845996870986 9.45138689270653,27.46896743912552 12.32869390056862,27.46896743912552 C20.412115919259456,27.46896743912552 26.96478405024022,20.91555325400313 26.96478405024022,12.832877289453831 C26.96478405024022,12.6310696441543 26.96053154163317,12.430754107137947 26.952772578560655,12.23103541343486 C27.24515119664896,12.000952316169148 29.05343722502973,10.55159293530631 29.49666799054711,9.619845917877164 C29.49666799054711,9.619845917877164 28.028209623659627,10.230118205696078 26.59101092530468,10.373882838780068 C26.588175919566645,10.373882838780068 26.584669465101182,10.374554287507497 26.589593422435662,10.369630330173015 C26.58183445936315,10.374554287507497 28.573425990332073,9.020839047596226 28.82410018190561,7.519181271408074 C28.82410018190561,7.519181271408074 27.785443605986924,8.073574104022052 26.33116026778961,8.558583901468356 C26.090408596299195,8.63856090544658 25.838391507270796,8.717195011969947 25.578540849755726,8.790084501603085 C24.64112382085052,7.789625897733693 23.308671123974513,7.165178581224609 21.82961878827648,7.165178581224609 C18.992598704060143,7.165178581224609 16.693707472171155,9.463398364386178 16.693707472171155,12.298254891591931 C16.693707472171155,12.69828912231137 16.739739012707133,13.087654778806101 16.82680353103044,13.461502509155807 C16.43035036019063,13.44523852886919 10.393056430218788,13.106753764830755 6.285879169949032,8.13296001369245 C6.285879169949032,8.13296001369245 3.831211833296493,11.484011401462883 7.748667525360445,14.92988627062914 C7.748667525360445,14.92988627062914 6.557815904557824,14.882437227224148 5.530424746177115,14.268583879525615 C5.530424746177115,14.268583879525615 5.15307056136195,18.328312096390405 9.589481514314453,19.366297223581668 C9.589481514314453,19.366297223581668 8.71652356324244,19.696948419133435 7.3238642971402905,19.461195310391652 C7.3238642971402905,19.461195310391652 8.10267021554391,22.74144616012539 12.044223456381152,23.04799980690386 C12.044223456381152,23.04799980690386 8.927433069069343,25.863608137256648 4.504451090665422,25.203350221951347Z"/>
  </defs>
  <g opacity="1">
    <g opacity="1">
      <use xlink:href="#rect-0" fill="rgb(255,255,255)" fill-opacity="1"/>
    </g>
    <g opacity="1">
      <use xlink:href="#path-1" fill="rgb(45,45,45)" fill-opacity="1"/>
    </g>
  </g>
</svg>