<?xml version="1.0" encoding="utf-8"?>
<svg version="1.1" xmlns="http://www.w3.org/2000/svg" xmlns:xlink="http://www.w3.org/1999/xlink" height="34.00000000000023" width="34">
  <defs>
    <rect id="rect-0" opacity="1" x="0" y="0" width="34" height="34.00000000000023" rx="0" ry="0"/>
    <path id="path-1" opacity="1" fill-rule="evenodd" d="M9.850799560546875,15.692802429199219 C14.616607666015625,15.590591430664062 19.383880615234375,15.590591430664062 24.14892578125,15.692802429199219 C25.802947998046875,15.727867126464844 27.12493896484375,17.079788208007812 27.12493896484375,18.733718872070312 L27.12493896484375,26.176353454589844 C27.12493896484375,27.831100463867188 25.802947998046875,29.182952880859375 24.14892578125,29.218017578125 C19.383880615234375,29.320228576660156 14.616607666015625,29.320228576660156 9.850799560546875,29.218017578125 C8.19757080078125,29.182952880859375 6.87554931640625,27.831100463867188 6.87554931640625,26.176353454589844 L6.87554931640625,18.733718872070312 C6.87554931640625,17.079715728759766 8.19757080078125,15.727867126464844 9.850799560546875,15.692802429199219 L9.850799560546875,15.692802429199219ZM20.79766845703125,26.210670471191406 C20.635009765625,26.700088500976562 20.27691650390625,26.949264526367188 19.76214599609375,26.944046020507812 C19.343597412109375,26.94031524658203 19.004150390625,26.773941040039062 18.724365234375,26.470298767089844 C18.69305419921875,26.436729431152344 18.60650634765625,26.34496307373047 18.60650634765625,26.34496307373047 L18.60650634765625,26.853775024414062 L17.387451171875,26.853775024414062 L17.387451171875,17.785484313964844 L18.60650634765625,17.785484313964844 L18.60650634765625,20.77044677734375 C18.60650634765625,20.77044677734375 18.675140380859375,20.63317108154297 18.737823486328125,20.562297821044922 C18.92657470703125,20.351165771484375 19.156341552734375,20.18777847290039 19.439849853515625,20.11615753173828 C19.907623291015625,19.999027252197266 20.447021484375,20.143760681152344 20.70367431640625,20.69062042236328 C20.8551025390625,21.013660430908203 20.89764404296875,21.35833740234375 20.89764404296875,21.708984375 C20.899871826171875,22.97652816772461 20.899871826171875,24.24407196044922 20.89837646484375,25.511619567871094 C20.89764404296875,25.748863220214844 20.873016357421875,25.983200073242188 20.79766845703125,26.210670471191406 L20.79766845703125,26.210670471191406ZM11.25042724609375,26.854591369628906 L9.876190185546875,26.854591369628906 L9.876190185546875,19.08592987060547 L8.453460693359375,19.08592987060547 L8.453460693359375,17.786304473876953 L12.676116943359375,17.786304473876953 L12.676116943359375,19.08294677734375 L11.25042724609375,19.08294677734375 L11.25042724609375,26.854591369628906 L11.25042724609375,26.854591369628906ZM24.012420654296875,27.011260986328125 C24.65252685546875,26.917259216308594 25.0889892578125,26.574073791503906 25.30010986328125,25.955596923828125 C25.459014892578125,25.4923095703125 25.44036865234375,24.476913452148438 25.44036865234375,24.476913452148438 L24.186248779296875,24.476913452148438 L24.186248779296875,25.337112426757812 C24.186248779296875,25.637779235839844 23.94305419921875,25.88098907470703 23.64312744140625,25.88098907470703 C23.34246826171875,25.88098907470703 23.0992431640625,25.637779235839844 23.0992431640625,25.337112426757812 L23.0992431640625,23.663715362548828 L25.43365478515625,23.663715362548828 C25.43365478515625,23.663715362548828 25.44708251953125,22.496143341064453 25.4373779296875,21.966442108154297 C25.43365478515625,21.740386962890625 25.41650390625,21.511348724365234 25.3702392578125,21.29051971435547 C25.2493896484375,20.717548370361328 24.941253662109375,20.28558349609375 24.36456298828125,20.096084594726562 C24.1951904296875,20.040130615234375 24.01318359375,20.011035919189453 23.834869384765625,19.99984359741211 C23.24176025390625,19.961795806884766 22.722503662109375,20.131149291992188 22.316650390625,20.585498809814453 C21.960784912109375,20.983142852783203 21.8369140625,21.462112426757812 21.836181640625,21.981365203857422 L21.835174560546875,22.390140533447266 C21.832977294921875,23.24704360961914 21.830810546875,24.104354858398438 21.83917236328125,24.961105346679688 C21.8421630859375,25.214019775390625 21.870513916015625,25.472152709960938 21.927947998046875,25.718353271484375 C22.051788330078125,26.247299194335938 22.34051513671875,26.662857055664062 22.850067138671875,26.89263916015625 C23.22235107421875,27.061248779296875 23.615509033203125,27.06945037841797 24.012420654296875,27.011260986328125 L24.012420654296875,27.011260986328125ZM16.168426513671875,26.855262756347656 L16.168426513671875,20.157188415527344 L14.95086669921875,20.160171508789062 L14.95086669921875,25.1497802734375 C14.95086669921875,25.191558837890625 14.95086669921875,25.24378204345703 14.927734375,25.27288055419922 C14.77105712890625,25.475059509277344 14.58453369140625,25.64366912841797 14.33984375,25.733200073242188 C14.127227783203125,25.81078338623047 13.957855224609375,25.716033935546875 13.9130859375,25.495208740234375 C13.89520263671875,25.407920837402344 13.894439697265625,25.31615447998047 13.894439697265625,25.22662353515625 C13.893707275390625,23.58157730102539 13.88922119140625,20.208667755126953 13.886993408203125,20.167633056640625 L12.67315673828125,20.167633056640625 L12.67315673828125,20.22185516357422 C12.673004150390625,20.750686645507812 12.671844482421875,24.96380615234375 12.674652099609375,25.799598693847656 C12.675384521484375,26.039825439453125 12.70074462890625,26.278564453125 12.80072021484375,26.501632690429688 C12.908172607421875,26.74335479736328 13.086456298828125,26.89629364013672 13.35205078125,26.94031524658203 C13.546783447265625,26.97388458251953 13.737030029296875,26.952247619628906 13.92205810546875,26.888832092285156 C14.301055908203125,26.758277893066406 14.59796142578125,26.51207733154297 14.859832763671875,26.216636657714844 C14.882965087890625,26.190528869628906 14.9075927734375,26.1651611328125 14.95159912109375,26.1181640625 L14.95159912109375,26.855262756347656 L16.168426513671875,26.855262756347656 L16.168426513671875,26.855262756347656ZM19.18994140625,21.13758087158203 C19.358551025390625,21.153995513916016 19.492828369140625,21.231582641601562 19.555511474609375,21.387508392333984 C19.602508544921875,21.506057739257812 19.639801025390625,21.638107299804688 19.64056396484375,21.765010833740234 C19.646026611328125,22.864578247070312 19.64459228515625,23.964141845703125 19.643157958984375,25.06427764892578 L19.642791748046875,25.360244750976562 C19.642791748046875,25.428138732910156 19.63458251953125,25.49677276611328 19.62042236328125,25.56317138671875 C19.564453125,25.828765869140625 19.362274169921875,25.948135375976562 19.0758056640625,25.889198303222656 C18.901947021484375,25.85338592529297 18.76617431640625,25.75341796875 18.6497802734375,25.627334594726562 C18.644561767578125,25.621368408203125 18.610260009765625,25.575111389160156 18.610260009765625,25.575111389160156 L18.610260009765625,25.47588348388672 L18.607269287109375,21.449432373046875 C18.607269287109375,21.449432373046875 18.633392333984375,21.37482452392578 18.690826416015625,21.324840545654297 C18.834075927734375,21.198009490966797 18.992218017578125,21.118183135986328 19.18994140625,21.13758087158203 L19.18994140625,21.13758087158203ZM24.186248779296875,21.686676025390625 C24.186248779296875,21.386764526367188 23.943023681640625,21.142803192138672 23.64312744140625,21.142803192138672 C23.34246826171875,21.142803192138672 23.0992431640625,21.386764526367188 23.0992431640625,21.686676025390625 L23.0992431640625,22.625957489013672 L24.186248779296875,22.625957489013672 L24.186248779296875,21.686676025390625 L24.186248779296875,21.686676025390625Z"/>
    <path id="path-2" opacity="1" fill-rule="evenodd" d="M22.671615492472455,7.0867682909433825 L22.67124246540166,13.81945928628932 L21.423690729838356,13.81945928628932 L21.425182838121533,13.09615979601984 C21.28723742734193,13.232016255203 21.169510083799352,13.358920064687103 21.04014429564801,13.472917137521737 C20.810807252523887,13.674948599063743 20.551031200422976,13.825576930250342 20.247163348554217,13.885037445334898 C19.7806556938193,13.976279866851101 19.383307258009573,13.82878496305917 19.234544062176948,13.34564030096684 C19.18500606717551,13.184716422626327 19.155089296097835,13.011258834707139 19.153821004057136,12.84324744202154 L19.153821004057136,7.0867682909433825 L20.391972457436434,7.0867682909433825 L20.391972457436434,12.22118749876554 C20.391972457436434,12.289227636478358 20.397418652670023,12.358013828332762 20.40935551893543,12.424711068590721 C20.446956647671463,12.636292023145053 20.603329595748292,12.735890251047039 20.80707698181595,12.665238923838663 C21.055438405550564,12.579293486727737 21.24493615751389,12.407328007091724 21.40571082502609,12.204699702236447 C21.42854008175868,12.175752801542835 21.424436783979946,12.121738481691871 21.424436783979946,12.079288001035518 L21.424436783979946,7.0867682909433825 L22.671615492472455,7.0867682909433825Z"/>
    <path id="path-3" opacity="1" fill-rule="evenodd" d="M12.353015265584215,8.25673039578184 C12.082197612187805,7.115192953738172 11.5148234375102,4.705363470995053 11.5148234375102,4.705363470995053 L10.09515701148257,4.705363470995053 C10.09515701148257,4.705363470995053 11.185888166484093,8.32275618731237 11.673658364254269,9.936023663082075 C11.691190636581585,9.994365096954251 11.699248021310733,10.057705093575064 11.699248021310733,10.118806927771114 L11.698725783411621,13.818041783420625 L13.007826985655925,13.818041783420625 L13.007304747756812,10.118806927771114 C13.007304747756812,10.057705093575064 13.015362132485961,9.994365096954251 13.032894404813277,9.936023663082075 C13.520664602583452,8.322756187312372 14.611395757584972,4.705363470995054 14.611395757584972,4.705363470995054 L13.19172933155734,4.705363470995054 C13.19172933155734,4.705363470995054 12.624280551465578,7.115192953738173 12.353015265584215,8.25673039578184Z"/>
    <path id="path-4" opacity="1" fill-rule="evenodd" d="M14.533721923828125,8.704586029052734 C14.533721923828125,7.718006134033203 15.33349609375,6.918235778808594 16.320068359375,6.918235778808594 C17.306640625,6.918235778808594 18.10650634765625,7.718006134033203 18.106414794921875,8.704586029052734 L18.106414794921875,12.200523376464844 C18.106414794921875,13.187103271484375 17.306640625,13.986873626708984 16.320068359375,13.986873626708984 C15.33349609375,13.986873626708984 14.533721923828125,13.187103271484375 14.533721923828125,12.200523376464844 L14.533721923828125,8.704586029052734 L14.533721923828125,8.704586029052734ZM16.320159912109375,12.786548614501953 C16.604339599609375,12.786548614501953 16.835601806640625,12.555347442626953 16.835601806640625,12.271099090576172 L16.835601806640625,8.63393783569336 C16.835601806640625,8.34976577758789 16.604339599609375,8.118488311767578 16.320159912109375,8.118488311767578 C16.035980224609375,8.118488311767578 15.804718017578125,8.349689483642578 15.804718017578125,8.63393783569336 L15.804718017578125,12.271099090576172 C15.804718017578125,12.555347442626953 16.035980224609375,12.786548614501953 16.320159912109375,12.786548614501953 L16.320159912109375,12.786548614501953Z"/>
  </defs>
  <g opacity="1">
    <g opacity="1">
      <use xlink:href="#rect-0" fill="rgb(255,255,255)" fill-opacity="1"/>
    </g>
    <g opacity="1">
      <g opacity="1">
        <use xlink:href="#path-1" fill="rgb(45,45,45)" fill-opacity="1"/>
      </g>
      <g opacity="1">
        <use xlink:href="#path-2" fill="rgb(45,45,45)" fill-opacity="1"/>
      </g>
      <g opacity="1">
        <use xlink:href="#path-3" fill="rgb(45,45,45)" fill-opacity="1"/>
      </g>
      <g opacity="1">
        <use xlink:href="#path-4" fill="rgb(45,45,45)" fill-opacity="1"/>
      </g>
    </g>
  </g>
</svg>